<?xml version="1.0" encoding="UTF-8" standalone="no"?>
<!DOCTYPE svg PUBLIC "-//W3C//DTD SVG 1.1//EN" "http://www.w3.org/Graphics/SVG/1.1/DTD/svg11.dtd">
<!-- Created with Vectornator (http://vectornator.io/) -->
<svg height="100%" stroke-miterlimit="10" style="fill-rule:nonzero;clip-rule:evenodd;stroke-linecap:round;stroke-linejoin:round;" version="1.1" viewBox="0 0 2097 1782" width="100%" xml:space="preserve" xmlns="http://www.w3.org/2000/svg" xmlns:vectornator="http://vectornator.io" xmlns:xlink="http://www.w3.org/1999/xlink">
<defs/>
<g id="Untitled" vectornator:layerName="Untitled">
<path d="M690 130C1007.99 130 1325.49 129.96 1642.98 130.197C1652.39 130.204 1662.09 132.132 1671.14 134.885C1695.81 142.394 1720.21 150.791 1744.69 158.908C1758.86 163.606 1772.06 170.3 1785.24 177.343C1809.34 190.215 1829.58 207.685 1847.79 227.53C1866.12 247.494 1881.65 269.731 1891.26 295.2C1902.63 325.354 1912.32 356.139 1923.11 386.518C1928.98 403.045 1930.13 419.948 1930.11 437.309C1929.94 638.972 1929.94 840.634 1930.15 1042.3C1930.17 1053.13 1928.05 1063.46 1924.96 1073.43C1915.8 1102.97 1906.5 1132.52 1895.69 1161.49C1886.79 1185.33 1873.85 1207.34 1857.4 1226.92C1848.76 1237.21 1839.69 1247.26 1829.86 1256.4C1811.69 1273.29 1791.27 1287 1768.52 1297.26C1737.05 1311.46 1703.9 1320.79 1671.11 1331.07C1659.26 1334.79 1646.61 1337.36 1634.25 1337.71C1594.66 1338.83 1555.03 1338.67 1515.41 1339C1513.45 1339.01 1511.49 1339 1509 1339C1509 1341.49 1509 1343.44 1509 1345.39C1509 1413.55 1509.03 1481.72 1508.92 1549.88C1508.91 1553.94 1508.21 1558.16 1506.96 1562.03C1500.82 1581.09 1494.49 1600.09 1488 1619.03C1485.03 1627.69 1478.79 1633.67 1470.27 1636.66C1454.18 1642.31 1437.96 1647.56 1421.75 1652.84C1419.44 1653.59 1416.89 1653.66 1414.45 1654C1391.49 1657.15 1370.68 1648.96 1349.69 1641.73C1349.22 1641.57 1348.79 1641.2 1348.32 1641.13C1332.51 1638.68 1323.22 1627.51 1314 1615.98C1306.14 1606.16 1297.76 1596.75 1289.64 1587.13C1281.42 1577.4 1273.25 1567.62 1265.03 1557.89C1256.91 1548.28 1248.73 1538.73 1240.62 1529.11C1228.67 1514.94 1216.79 1500.71 1204.84 1486.54C1196.94 1477.17 1188.92 1467.89 1181.03 1458.51C1172.84 1448.77 1164.79 1438.91 1156.57 1429.19C1148.33 1419.46 1139.91 1409.89 1131.68 1400.15C1121.64 1388.28 1111.76 1376.27 1101.72 1364.39C1095.2 1356.66 1088.63 1348.98 1081.84 1341.49C1080.59 1340.12 1078.24 1339.65 1076.3 1339.06C1075.24 1338.73 1073.99 1339 1072.82 1339C877.159 1339 681.497 1338.97 485.834 1339.05C468.366 1339.05 450.942 1337.82 434.348 1332.68C401.043 1322.37 367.682 1311.98 335.142 1299.54C312.903 1291.04 293.099 1277.39 274.966 1261.58C253.763 1243.09 235.774 1222.04 221.328 1197.9C209.004 1177.3 200.268 1155.2 192.98 1132.43C186.879 1113.36 179.893 1094.56 174.432 1075.33C171.399 1064.64 168.837 1053.75 168.848 1042.24C169.057 836.077 169.054 629.915 168.847 423.753C168.836 412.919 170.934 402.581 174.023 392.616C183.18 363.073 192.5 333.529 203.295 304.559C212.171 280.738 224.961 258.692 241.482 239.167C249.84 229.289 258.612 219.678 267.949 210.731C288.01 191.507 310.735 175.752 336.746 165.978C367.854 154.288 399.509 144.014 431.137 133.778C439.008 131.231 447.686 130.185 455.998 130.157C533.832 129.892 611.666 130 690 130M791.5 211C690.501 211 589.502 211.032 488.503 210.959C475.739 210.95 463.109 211.369 450.499 213.894C429.589 218.08 409.322 224.037 390.144 233.43C370.65 242.976 352.672 254.706 336.235 269.034C317.362 285.487 301.204 304.167 288.025 325.308C273.323 348.894 262.605 374.256 256.212 401.425C252.302 418.041 249.941 434.734 249.949 451.846C250.03 640.178 249.97 828.51 250.087 1016.84C250.093 1026.4 250.667 1036.07 252.202 1045.48C255.325 1064.63 260.384 1083.39 267.834 1101.32C279.243 1128.79 294.636 1153.94 314.644 1175.99C328.57 1191.34 344.108 1204.97 361.589 1216.31C384.272 1231.02 408.47 1242.1 434.826 1248.48C452.064 1252.66 469.434 1255.03 487.187 1255.03C697.853 1254.98 908.518 1255 1119.18 1255C1120.68 1255 1122.21 1254.84 1123.67 1255.06C1124.73 1255.22 1126.02 1255.64 1126.68 1256.39C1132.32 1262.86 1137.87 1269.41 1143.41 1275.97C1153.94 1288.46 1164.44 1300.97 1174.97 1313.46C1182.52 1322.42 1190.11 1331.35 1197.67 1340.32C1207.98 1352.56 1218.24 1364.84 1228.57 1377.06C1236.57 1386.51 1244.67 1395.89 1252.67 1405.34C1261.31 1415.53 1269.88 1425.78 1278.5 1436C1286.28 1445.21 1294.09 1454.38 1301.85 1463.61C1311.83 1475.47 1321.74 1487.4 1331.76 1499.23C1339.97 1508.94 1348.33 1518.53 1356.59 1528.2C1367.84 1541.38 1379.2 1554.48 1390.23 1567.84C1395.64 1574.39 1402.42 1573.98 1409.24 1572.19C1418.48 1569.77 1424.99 1560.09 1425 1549.98C1425 1453.81 1425 1357.65 1425 1261.48C1425 1259.4 1425 1257.32 1425 1255C1438.17 1255 1450.49 1255.06 1462.82 1254.99C1519.43 1254.68 1576.05 1254.75 1632.64 1253.68C1645.59 1253.44 1658.7 1250.07 1671.3 1246.56C1683.25 1243.24 1694.99 1238.62 1706.14 1233.18C1719.56 1226.62 1732.81 1219.41 1745.12 1211C1760.99 1200.15 1774.81 1186.78 1787.48 1172.18C1801.19 1156.38 1812.56 1139.12 1822.12 1120.6C1831.45 1102.54 1838.3 1083.59 1842.97 1063.79C1847.01 1046.69 1849.09 1029.46 1849.07 1011.84C1848.95 826.674 1848.89 641.509 1849.15 456.344C1849.18 435.675 1846.79 415.437 1841.59 395.653C1834.95 370.401 1824.62 346.444 1810.55 324.414C1797.16 303.436 1781.04 284.667 1762.03 268.357C1747.67 256.037 1732.19 245.586 1715.5 236.786C1697.48 227.281 1678.5 220.436 1658.62 216.067C1644.25 212.911 1629.85 210.865 1614.99 210.874C1340.83 211.046 1066.66 211 791.5 211Z" fill="#f2b66d" fill-rule="nonzero" opacity="1" stroke="none" vectornator:layerName="path"/>
<path d="M792 211C1066.66 211 1340.83 211.046 1614.99 210.874C1629.85 210.865 1644.25 212.911 1658.62 216.067C1678.5 220.436 1697.48 227.281 1715.5 236.786C1732.19 245.586 1747.67 256.037 1762.03 268.357C1781.04 284.667 1797.16 303.436 1810.55 324.414C1824.62 346.444 1834.95 370.401 1841.59 395.653C1846.79 415.437 1849.18 435.675 1849.15 456.344C1848.89 641.509 1848.95 826.674 1849.07 1011.84C1849.09 1029.46 1847.01 1046.69 1842.97 1063.79C1838.3 1083.59 1831.45 1102.54 1822.12 1120.6C1812.56 1139.12 1801.19 1156.38 1787.48 1172.18C1774.81 1186.78 1760.99 1200.15 1745.12 1211C1732.81 1219.41 1719.56 1226.62 1706.14 1233.18C1694.99 1238.62 1683.25 1243.24 1671.3 1246.56C1658.7 1250.07 1645.59 1253.44 1632.64 1253.68C1576.05 1254.75 1519.43 1254.68 1462.82 1254.99C1450.49 1255.06 1438.17 1255 1425 1255C1425 1257.32 1425 1259.4 1425 1261.48C1425 1357.65 1425 1453.81 1425 1549.98C1424.99 1560.09 1418.48 1569.77 1409.24 1572.19C1402.42 1573.98 1395.64 1574.39 1390.23 1567.84C1379.2 1554.48 1367.84 1541.38 1356.59 1528.2C1348.33 1518.53 1339.97 1508.94 1331.76 1499.23C1321.74 1487.4 1311.83 1475.47 1301.85 1463.61C1294.09 1454.38 1286.28 1445.21 1278.5 1436C1269.88 1425.78 1261.31 1415.53 1252.67 1405.34C1244.67 1395.89 1236.57 1386.51 1228.57 1377.06C1218.24 1364.84 1207.98 1352.56 1197.67 1340.32C1190.11 1331.35 1182.52 1322.42 1174.97 1313.46C1164.44 1300.97 1153.94 1288.46 1143.41 1275.97C1137.87 1269.41 1132.32 1262.86 1126.68 1256.39C1126.02 1255.64 1124.73 1255.22 1123.67 1255.06C1122.21 1254.84 1120.68 1255 1119.18 1255C908.518 1255 697.853 1254.98 487.187 1255.03C469.434 1255.03 452.064 1252.66 434.826 1248.48C408.47 1242.1 384.272 1231.02 361.589 1216.31C344.108 1204.97 328.57 1191.34 314.644 1175.99C294.636 1153.94 279.243 1128.79 267.834 1101.32C260.384 1083.39 255.325 1064.63 252.202 1045.48C250.667 1036.07 250.093 1026.4 250.087 1016.84C249.97 828.51 250.03 640.178 249.949 451.846C249.941 434.734 252.302 418.041 256.212 401.425C262.605 374.256 273.323 348.894 288.025 325.308C301.204 304.167 317.362 285.487 336.235 269.034C352.672 254.706 370.65 242.976 390.144 233.43C409.322 224.037 429.589 218.08 450.499 213.894C463.109 211.369 475.739 210.95 488.503 210.959C589.502 211.032 690.501 211 792 211Z" fill="#ffffff" fill-rule="nonzero" opacity="1" stroke="none" vectornator:layerName="path"/>
</g>
</svg>
