<?xml version="1.0" encoding="UTF-8" standalone="no"?>
<!DOCTYPE svg PUBLIC "-//W3C//DTD SVG 1.1//EN" "http://www.w3.org/Graphics/SVG/1.1/DTD/svg11.dtd">
<!-- Created with Vectornator (http://vectornator.io/) -->
<svg height="100%" stroke-miterlimit="10" style="fill-rule:nonzero;clip-rule:evenodd;stroke-linecap:round;stroke-linejoin:round;" version="1.1" viewBox="0 0 1435.8 1054.63" width="100%" xml:space="preserve" xmlns="http://www.w3.org/2000/svg" xmlns:vectornator="http://vectornator.io" xmlns:xlink="http://www.w3.org/1999/xlink">
<defs/>
<g id="clouds-left" vectornator:layerName="clouds-left">
<path d="M1389.98 1002.26C1327.96 987.126 1282.88 987.126 1192.66 968.184C1102.43 949.243 1091.16 926.541 1000.94 911.406C910.716 896.271 882.507 896.272 792.35 873.523C702.193 850.775 685.259 831.879 583.765 797.803C482.271 763.727 476.671 737.219 380.777 695.575C284.95 653.932 330.03 627.423 256.745 581.973C183.46 536.522 200.328 513.82 127.045 453.236C84.55 418.125 34.578 405.952 0 401.863L0 782.481C18.759 782.481 36.258 779.708 59.356 775.008C115.773 763.634 87.564 763.634 143.911 767.441C200.258 771.249 177.719 752.306 234.136 771.249C290.553 790.191 296.15 824.265 380.707 862.102C465.262 899.985 544.217 892.371 628.772 911.313C713.327 930.255 758.472 934.015 865.572 934.015C972.672 934.015 967.066 941.582 1068.56 968.091C1170.05 994.6 1141.85 990.793 1226.4 1017.3C1310.95 1043.81 1316.62 1024.87 1384.24 1028.68C1451.93 1032.48 1451.93 1017.3 1389.91 1002.17L1389.98 1002.26Z" fill="#ffffff" fill-rule="nonzero" opacity="0.09" stroke="none" vectornator:layerName="path"/>
<path d="M437.124 535.842C392.047 513.746 403.316 506.381 375.108 487.945C346.9 469.508 301.822 447.413 262.345 417.952C222.868 388.491 251.076 377.421 222.867 355.325C194.658 333.23 194.66 322.16 172.12 292.699C149.58 263.239 155.181 248.462 110.104 230.072C65.026 211.636 93.16 178.47 53.687 126.916C38.218 106.511 18.409 93.1068 0 84.2321L0 318.134C40.458 344.804 55.507 340.551 127.042 381.035C211.597 428.932 172.119 421.566 205.997 451.028C239.805 480.488 251.074 484.194 318.76 513.654C386.446 543.115 369.507 543.115 437.193 561.551C504.879 579.988 527.418 609.448 538.687 594.718C549.956 579.987 482.27 557.846 437.193 535.75L437.124 535.842Z" fill="#ffffff" fill-rule="nonzero" opacity="0.09" stroke="none" vectornator:layerName="path"/>
</g>
</svg>
