<?xml version="1.0" encoding="UTF-8" standalone="no"?>
<!DOCTYPE svg PUBLIC "-//W3C//DTD SVG 1.1//EN" "http://www.w3.org/Graphics/SVG/1.1/DTD/svg11.dtd">
<!-- Created with Vectornator (http://vectornator.io/) -->
<svg height="100%" stroke-miterlimit="10" style="fill-rule:nonzero;clip-rule:evenodd;stroke-linecap:round;stroke-linejoin:round;" version="1.1" viewBox="0 0 4228.8 1129.94" width="100%" xml:space="preserve" xmlns="http://www.w3.org/2000/svg" xmlns:vectornator="http://vectornator.io" xmlns:xlink="http://www.w3.org/1999/xlink">
<defs>
<linearGradient gradientTransform="matrix(25.3727 1124.29 -4207.65 6.77963 2097.48 -136.723)" gradientUnits="userSpaceOnUse" id="LinearGradient" x1="0" x2="1" y1="0" y2="0">
<stop offset="0" stop-color="#673955"/>
<stop offset="0" stop-color="#a74854"/>
<stop offset="0" stop-color="#282a57"/>
<stop offset="0" stop-color="#ffe587"/>
<stop offset="1" stop-color="#6d7847"/>
</linearGradient>
</defs>
<clipPath id="ArtboardFrame">
<rect height="1129.94" width="4228.8" x="0" y="0"/>
</clipPath>
<g clip-path="url(#ArtboardFrame)" id="mountain-1" vectornator:layerName="mountain-1">
<path d="M4228.79 43.3272C4173.85 29.0482 4111.69 12.8792 4093.91 8.46924C4060.1 0.000236713 4009.36 0.000236713 4009.36 0.000236713L3907.86 76.0852L3797.9 84.5542L3704.88 152.24L3611.85 236.795C3611.85 236.795 3476.55 245.264 3451.14 262.133C3425.8 279.072 3341.18 321.349 3341.18 321.349L3222.74 329.818C3222.74 329.818 3062.03 312.879 3028.23 312.879C2994.42 312.879 2909.79 295.94 2884.46 295.94C2859.12 295.94 2660.54 240.923 2660.54 240.923C2660.54 240.923 2520.55 292.58 2495.14 301.049C2469.8 309.518 2408.69 372.449 2408.69 372.449L2334.78 448.114C2334.78 448.114 2207.94 465.053 2182.54 465.053C2157.13 465.053 2097.98 414.306 2097.98 414.306C2097.98 414.306 1971.15 397.37 1945.74 388.97C1920.4 380.501 1835.78 380.501 1810.44 372.031C1785.11 363.561 1700.48 346.692 1632.86 312.815C1565.18 279.007 1514.43 236.73 1489.09 228.26C1463.75 219.79 1362.26 185.983 1311.51 194.452C1260.77 202.921 1167.74 219.79 1108.53 219.79C1049.31 219.79 947.816 219.79 854.791 194.452C761.766 169.114 567.248 59.1522 533.44 33.7422C499.63 8.40024 330.45 50.6772 237.426 84.4852C187.729 102.544 84.9699 120.603-7.8125e-05 133.552L-7.8125e-05 1129.94L4228.72 1129.94L4228.72 43.2582L4228.79 43.3272Z" fill="url(#LinearGradient)" fill-rule="nonzero" opacity="1" stroke="none" vectornator:layerName="path"/>
<g opacity="1" vectornator:layerName="Group 15">
<path d="M1844.95 947.742L2987.63 932.693L3254.52 665.799L3382.33 492.909L3319.9 322.959L3222.89 329.889C3222.89 329.889 3062.18 312.95 3028.37 312.95C3007.79 312.95 2968.45 306.72 2935.13 301.821C2923.72 327.021 2908.33 353.898 2889.99 368.877C2848.62 402.685 2724.59 421.514 2690.78 425.294C2656.97 429.074 2611.82 481.711 2585.5 504.249C2559.19 526.787 2476.52 594.473 2431.37 605.742C2386.3 617.011 2303.56 628.281 2269.75 620.791C2235.94 613.301 2187.09 620.791 2134.45 586.983C2081.82 553.175 2055.5 534.346 2002.86 519.297C1950.22 504.248 1837.46 538.126 1811.14 519.297C1784.82 500.538 1645.74 417.803 1578.13 365.166C1510.44 312.529 1521.71 282.501 1424 229.866C1395.31 214.499 1365.06 202.251 1333.77 193.332C1326.35 193.082 1318.92 193.504 1311.58 194.592C1262.02 202.851 1172.29 219.161 1112.93 219.86C1075.27 243.168 1040.13 265.36 1033.07 263.607C1018.02 259.827 916.524 331.293 916.524 331.293C916.524 331.293 841 398.132 820.21 404.015C855.21 424.874 1055.61 594.403 1055.61 594.403L1844.95 947.742L1844.95 947.742Z" fill="#6a7349" fill-rule="nonzero" opacity="0.55" stroke="none" vectornator:layerName="path"/>
<path d="M820.14 392.746C816.5 390.576 814.61 390.016 814.96 391.416C815.38 393.236 817.27 393.516 820.14 392.746Z" fill="#6a7349" fill-rule="nonzero" opacity="1" stroke="none" vectornator:layerName="path"/>
</g>
</g>
</svg>
