<?xml version="1.0" encoding="UTF-8" standalone="no"?>
<!DOCTYPE svg PUBLIC "-//W3C//DTD SVG 1.1//EN" "http://www.w3.org/Graphics/SVG/1.1/DTD/svg11.dtd">
<!-- Created with Vectornator (http://vectornator.io/) -->
<svg height="100%" stroke-miterlimit="10" style="fill-rule:nonzero;clip-rule:evenodd;stroke-linecap:round;stroke-linejoin:round;" version="1.1" viewBox="0 0 4228.8 1065.83" width="100%" xml:space="preserve" xmlns="http://www.w3.org/2000/svg" xmlns:vectornator="http://vectornator.io" xmlns:xlink="http://www.w3.org/1999/xlink">
<defs>
<linearGradient gradientTransform="matrix(4228.8 0 0 4228.8 -0.001 532.915)" gradientUnits="userSpaceOnUse" id="LinearGradient" x1="0" x2="1" y1="0" y2="0">
<stop offset="0" stop-color="#2f3637"/>
<stop offset="1" stop-color="#6d7847"/>
</linearGradient>
<linearGradient gradientTransform="matrix(1683.61 0 0 1683.61 -0.001 532.913)" gradientUnits="userSpaceOnUse" id="LinearGradient_2" x1="0" x2="1" y1="0" y2="0">
<stop offset="0" stop-color="#673955"/>
<stop offset="0" stop-color="#a74854"/>
<stop offset="0" stop-color="#282a57"/>
<stop offset="0" stop-color="#ffe587"/>
<stop offset="1" stop-color="#3d453b"/>
</linearGradient>
<linearGradient gradientTransform="matrix(1315.71 0 0 1315.71 2913.09 543.819)" gradientUnits="userSpaceOnUse" id="LinearGradient_3" x1="0" x2="1" y1="0" y2="0">
<stop offset="0" stop-color="#673955"/>
<stop offset="0" stop-color="#a74854"/>
<stop offset="0" stop-color="#282a57"/>
<stop offset="0" stop-color="#ffe587"/>
<stop offset="1" stop-color="#6d7847"/>
</linearGradient>
</defs>
<clipPath id="ArtboardFrame">
<rect height="1065.83" width="4228.8" x="0" y="0"/>
</clipPath>
<g clip-path="url(#ArtboardFrame)" id="mountain-2" vectornator:layerName="mountain-2">
<path d="M4228.8 232.176C4138.08 194.73 3965.47 120.953 3862.02 101.564C3726.72 76.225 3735.18 67.756 3667.5 50.817C3599.81 33.878 3405.37 0.07 3354.62 42.347C3303.87 84.624 3109.35 236.865 3067.08 262.204C3024.8 287.543 2855.62 346.759 2813.34 389.036C2771.06 431.313 2390.5 625.836 2280.53 608.893C2170.57 591.95 1730.86 448.183 1570.15 380.567C1409.44 312.881 1231.86 202.988 1147.3 152.241C1062.75 101.494 834.421 0 783.671 0C732.921 0 496.128 76.085 445.381 84.555C394.634 93.025 250.863 143.771 140.899 143.771C99.951 143.771 48.505 147.271-0.001 151.681L-0.001 1065.83L4228.73 1065.83L4228.73 232.036L4228.8 232.176Z" fill="url(#LinearGradient)" fill-rule="nonzero" opacity="1" stroke="none" vectornator:layerName="path"/>
<path d="M140.899 143.771C99.951 143.771 48.505 147.271-0.001 151.681L-0.001 1065.83L1683.6 1065.83C1240.81 845.689 663.347 548.487 628.839 479.471C572.423 366.71 955.857 174.989 944.59 124.243C933.323 73.497 783.6 0 783.6 0C732.853 0 496.057 76.085 445.31 84.555C394.563 93.025 250.792 143.771 140.828 143.771L140.899 143.771Z" fill="url(#LinearGradient_2)" fill-rule="nonzero" opacity="1" stroke="none" vectornator:layerName="path"/>
<path d="M3667.5 50.682C3608.35 35.913 3452.33 8.194 3380.1 29.682L3380.38 39.621C3380.38 39.621 3329.63 152.384 3340.9 208.801C3352.17 265.218 3532.62 377.981 3532.62 496.344C3532.62 570.96 3178.93 860.462 2913.09 1065.83L4228.8 1065.83L4228.8 232.041C4138.08 194.594 3965.47 120.818 3862.02 101.429C3726.72 76.094 3735.18 67.621 3667.5 50.682Z" fill="url(#LinearGradient_3)" fill-rule="nonzero" opacity="1" stroke="none" vectornator:layerName="path"/>
<g opacity="1" vectornator:layerName="fs.svg">
<path d="M1709.66 216.364C1714.38 222.285 1718.95 228.318 1723.89 234.089C1727.24 238.005 1729.21 242.206 1730.32 247.071C1731.37 251.687 1733.09 256.349 1735.54 260.492C1738.98 266.304 1740.98 272.152 1741.07 278.796C1741.26 293.346 1738.18 307.519 1735.7 321.769C1734.13 330.819 1732.29 339.832 1730.71 348.883C1729.51 355.791 1730.43 362.624 1732.46 369.306C1735.94 380.794 1739.66 392.224 1743.18 403.705C1744.12 406.778 1744.67 409.949 1744.98 413.857C1743.34 415.126 1742.11 415.614 1740.49 415.751C1738.01 411.732 1735.8 408.111 1733.83 404.386C1723.61 385.091 1716.85 365.072 1718.29 343.342C1718.92 333.72 1719.42 324.092 1719.99 314.467C1720.09 312.74 1721.11 310.753 1717.62 309.751C1717.17 311.189 1716.43 312.575 1716.34 313.998C1715.72 322.928 1715.64 331.902 1714.64 340.794C1711.63 367.64 1721.33 391.42 1735.73 414.108C1736.6 415.477 1738.62 416.248 1740.19 417.741C1740.72 419.288 1741.17 420.391 1741.62 421.493C1743.66 425.945 1745.51 430.474 1747.77 434.831C1751.34 441.701 1755.09 448.49 1758.93 455.24C1760.61 458.21 1760.62 460.753 1758.31 463.509C1752.55 470.361 1746 476.393 1737.61 480.586C1732.53 483.129 1730.87 483.071 1727.17 478.748C1721.74 472.391 1716.7 465.742 1711.86 459.002C1697.56 439.108 1684.04 418.681 1674.57 396.581C1668.1 381.495 1660.38 367.201 1651.34 353.366C1649.55 350.631 1647.67 347.949 1645.35 344.552C1642.26 346.619 1639.53 348.173 1637.15 350.089C1627.27 358.041 1617.67 366.274 1607.62 374.047C1603.03 377.596 1597.66 380.316 1591.93 382.896C1592.26 375.491 1588.85 370.563 1583.08 366.415C1560.8 350.423 1537.55 335.742 1512.64 323.289C1506.2 320.066 1499.32 317.582 1491.63 318.392C1493.93 315.523 1496.15 312.596 1498.57 309.804C1500.41 307.675 1502.49 305.717 1504.71 303.253C1510.7 297.633 1516.27 292.266 1522.23 287.284C1538.09 274.04 1554.11 260.962 1570.33 247.472C1585.27 237.323 1599.73 227.229 1614.73 217.843C1621.53 213.587 1629.4 210.733 1637.46 207.88C1638.16 212.639 1638.38 216.768 1638.16 220.879C1637.93 225.257 1640.01 228.305 1643.85 230.669C1655.66 237.929 1682.34 239.964 1695 230.173C1700.34 226.047 1704.8 220.995 1709.66 216.364M1649.6 310.128C1650.36 314.434 1651.23 318.727 1651.84 323.051C1652.89 330.58 1654.56 338.325 1645.25 343.526C1646.91 343.788 1648.21 343.947 1649.19 343.514C1654.56 341.142 1657.17 337.09 1656.64 331.772C1655.9 324.464 1655.27 317.096 1653.67 309.924C1651.56 300.495 1648.64 291.207 1645.83 281.919C1645.35 280.334 1645.22 277.494 1641.26 278.312C1644.02 288.639 1646.73 298.792 1649.6 310.128Z" fill="#f2b66d" fill-rule="nonzero" opacity="1" stroke="none" vectornator:layerName="path"/>
<path d="M2170.46 736.354C2158.39 739.622 2146.32 742.889 2133.26 746.487C2129.48 747.482 2126.7 748.148 2122.17 749.234C2127 750.735 2130.21 751.733 2133.43 752.731C2134.15 755.366 2131.79 755.771 2130.01 756.373C2122.45 758.93 2114.59 758.648 2105.71 758.204C2103.81 758.189 2102.92 758.226 2102.04 758.264C2094.07 756.981 2087.65 759.965 2081.78 764.35C2078.46 766.838 2075.37 769.617 2071.91 771.929C2064.17 777.087 2055.88 777.515 2047.63 773.102C2043.5 770.893 2039.6 768.219 2036.02 765.325C2030.29 760.695 2023.92 759.902 2016.85 761.743C2008.57 763.9 2000.42 766.931 1991.97 768.041C1983.03 769.216 1973.76 769.087 1964.69 768.585C1955.73 768.089 1948.26 764.171 1942.63 757.628C1941.07 755.819 1939.28 754.172 1937.51 752.522C1928.53 744.141 1924.39 743.379 1911.54 747.549C1910.34 746.963 1910.08 746.678 1909.82 746.393C1915.57 741.303 1921.32 736.212 1927.85 730.726C1929.7 729.395 1930.76 728.46 1931.83 727.525C1932.67 726.942 1933.52 726.358 1935.15 725.278C1937.89 723.534 1939.84 722.286 1941.8 721.038C1948.26 717.203 1955.62 716.234 1964.27 715.62C1969.63 714.091 1970.55 718.831 1973.73 719.178C1978.88 716.551 1979.68 715.733 1981.82 711.603C1982.88 709.56 1984.14 707.605 1985.77 705.55C1986.95 705.088 1987.68 704.685 1988.4 704.282C1996.41 702.547 2004.4 700.605 2013.94 702.325C2023.5 704.992 2031.89 707.413 2040.39 710.133C2040.7 709.969 2040.89 709.508 2041.03 708.549C2040.14 705.52 2039.28 702.989 2038.45 699.898C2038.68 697.499 2038.88 695.66 2039.08 693.821C2040.48 688.348 2043.54 683.679 2047.35 679.285C2049.83 676.412 2051.97 673.266 2054.04 670.127C2065.74 652.436 2077.37 634.706 2089.04 616.998C2091.49 613.282 2094 609.603 2096.85 605.482C2097.21 605.057 2097.27 605.118 2097.92 605.151C2099.01 605.179 2099.44 605.175 2100.07 605.336C2100.63 605.257 2100.99 605.012 2101.78 604.468C2115.19 599.142 2128.45 594.797 2142.67 590.791C2143.29 597.14 2140.67 601.933 2138.35 606.614C2136.58 610.17 2135.99 613.547 2136.77 617.68C2134.84 620.415 2133.22 622.752 2131.46 625.005C2119.35 640.589 2107.21 656.155 2094.61 671.978C2092.68 673.494 2091.46 675.176 2089.73 675.953C2083.32 678.834 2081.44 683.991 2080.11 689.762C2077.97 699.014 2072.86 706.737 2064.04 712.647C2063.5 713.223 2063.35 713.679 2062.7 714.307C2060.07 715.177 2057.93 715.874 2055.78 716.571C2055.89 716.972 2055.99 717.373 2056.09 717.774C2058.97 718.382 2061.84 718.991 2064.97 720.064C2066.16 722.535 2067.31 724.486 2067.97 726.564C2068.55 728.396 2068.58 730.37 2068.93 732.764C2072.57 732.093 2075.33 731.815 2077.91 731.046C2080.6 730.245 2083.09 728.945 2083.68 726.036C2088.25 727.512 2090.61 730.396 2092.89 733.487C2094.26 735.352 2095.08 737.91 2098.92 738.775C2094.42 725.656 2100.33 715.572 2108.37 705.997C2112.63 700.923 2116.73 695.735 2121.35 690.35C2138.67 671.848 2155.97 653.892 2172.28 635.239C2183.98 621.868 2192.53 606.804 2195.9 589.242C2198.6 587.206 2200.9 585.436 2203.41 583.959C2217.15 575.88 2231.02 567.958 2240.95 555.73C2241.34 555.25 2242.27 555.13 2242.95 554.842C2252.06 566.127 2260.25 577.852 2263.75 591.71C2264.76 595.7 2265.44 599.756 2266.46 604.334C2266.62 607.712 2266.61 610.537 2266.73 613.955C2265.77 628.979 2261.91 642.656 2252.72 654.711C2249.56 658.849 2245.7 662.547 2241.52 666.931C2240.39 667.906 2239.89 668.395 2238.82 668.902C2232.94 670.315 2227.64 671.724 2222.34 673.1C2215.27 674.934 2208.5 677.321 2203.13 682.072C2199.19 685.561 2195.38 689.182 2191.02 692.942C2182.41 698.948 2174.32 704.802 2166.14 710.548C2159.67 715.096 2159.41 716.287 2163.96 724.101C2165.23 726.979 2166.5 729.344 2167.8 731.698C2168.67 733.259 2169.57 734.802 2170.46 736.354Z" fill="#303637" fill-rule="nonzero" opacity="1" stroke="none" vectornator:layerName="path"/>
<path d="M2946.64 602.308C2948.7 596.174 2952.43 591.048 2958.23 586.649C2960.69 585.247 2962.85 584.177 2965.44 582.819C2979.25 577.502 2992.3 581.229 3006.38 583.925C3006.11 586.237 3005.99 588.641 3005.51 590.985C3003.56 600.563 2998.95 608.809 2990.34 614.962C2979.74 622.533 2967.52 622.791 2956.56 614.759C2959.68 610.643 2962.86 607.428 2966.09 604.255C2969.29 601.124 2974.47 599.567 2976.18 593.821C2973.92 594.501 2972.36 594.593 2971.39 595.325C2966.97 598.68 2962.73 602.232 2958.38 605.678C2956.16 607.445 2953.85 609.137 2951.05 610.617C2949.23 607.684 2947.93 604.996 2946.64 602.308Z" fill="#e59e42" fill-rule="nonzero" opacity="1" stroke="none" vectornator:layerName="path"/>
<path d="M1837.59 526.6C1835.79 527.182 1834.92 530.279 1831.81 527.408C1831.62 525.549 1831.76 524.532 1832.39 523.451C1835.88 520.647 1838.89 517.905 1841.91 515.164C1843.81 514.064 1845.81 513.074 1847.62 511.845C1861.24 502.546 1875.68 500.874 1891.63 508.009C1898.06 511.476 1903.95 514.889 1909.84 518.302C1909.72 518.789 1909.61 519.277 1909.49 519.764C1892.66 518.522 1876.03 519.681 1858.43 522.225C1856.74 522.421 1856.11 522.549 1854.97 522.522C1848.83 523.766 1842.28 522.156 1837.59 526.6M1847.46 520.206C1852.03 519.431 1856.69 518.949 1861.13 517.797C1865.63 516.633 1871.02 516.596 1874.19 511.207C1863.9 512.319 1855.07 514.982 1845.38 518.042C1844 518.63 1842.62 519.219 1841.25 519.807C1841.34 520.094 1841.43 520.381 1841.52 520.669C1843.12 520.543 1844.73 520.417 1847.46 520.206Z" fill="#343a3a" fill-rule="nonzero" opacity="1" stroke="none" vectornator:layerName="path"/>
<path d="M1841.8 514.718C1838.89 517.905 1835.88 520.647 1831.99 523.05C1829.59 522.586 1828.06 522.46 1826.53 522.335C1826.53 522.335 1826.4 521.977 1826.42 521.179C1826.66 514.587 1826.89 508.792 1827.12 502.998C1830.49 505.157 1833.86 507.316 1837.65 509.664C1839.28 511.325 1840.48 512.798 1841.8 514.718Z" fill="#e7a248" fill-rule="nonzero" opacity="1" stroke="none" vectornator:layerName="path"/>
<path d="M2950.22 618.561C2950.82 620.97 2951.2 623.447 2952.07 625.777C2956.8 638.517 2961.73 651.199 2966.42 663.954C2967.6 667.175 2968.15 670.588 2968.8 674.887C2964.58 678.929 2960.55 682.002 2956.51 685.063C2954.99 686.208 2953.45 687.323 2951.4 688.413C2939.08 692.288 2927.28 696.2 2914.85 700.097C2913.22 700.172 2912.19 700.174 2911.21 700.367C2902.38 702.105 2902.17 702.237 2897.57 695.66C2892.61 688.551 2888.1 681.184 2883.39 673.929C2872.48 653.266 2861.57 632.604 2850.25 611.15C2845.6 601.394 2841.36 592.429 2837.11 583.464C2820.05 549.214 2807.16 513.777 2800.36 475.178C2798.53 477.38 2797.37 478.381 2796.73 479.604C2784.71 502.626 2779.88 526.647 2788.74 551.238C2801.88 587.711 2803.66 625.186 2803.44 664.111C2803.54 666.291 2803.65 667.338 2803.76 668.384C2803.44 671.801 2803.04 675.214 2802.81 678.636C2802.52 682.993 2802.53 687.369 2802.14 691.716C2801.08 703.187 2799.7 704.571 2787.13 705.301C2771.98 706.181 2757.31 703.483 2742.82 699.734C2736.34 698.056 2734.67 693.399 2733.81 688.18C2732.31 679.1 2730.94 670 2729.27 660.946C2721.92 621.108 2715.39 581.122 2706.72 541.519C2702.06 520.235 2703.21 499.563 2706.84 478.634C2712.31 447.123 2718.56 415.713 2723.32 384.117C2725.15 371.956 2724.13 359.396 2723.78 347.033C2723.58 339.944 2722.13 332.884 2721.21 324.782C2720.19 320.494 2721.96 319.345 2725.28 318.649C2738.33 315.922 2749.87 310.187 2761.26 303.979C2772.78 297.701 2784.88 292.299 2796.54 286.222C2804 282.335 2812.04 278.8 2818.22 273.566C2833.84 260.33 2850.87 248.788 2868.05 237.368C2895.56 264.896 2907.43 296.763 2900.2 333.684C2897.76 346.129 2891.23 357.04 2881.92 366.45C2878.88 369.52 2878.17 372.353 2879.43 376.384C2883.88 390.601 2884.68 405.297 2885.07 420.387C2874.92 413.412 2864.56 407.043 2852.52 401.591C2846.52 410.24 2840.93 418.645 2834.91 426.798C2832.56 429.994 2832.69 432.605 2834.85 435.627C2842.97 447.03 2851.69 458.024 2863.06 466.997C2871.33 473.523 2880.54 477.987 2892.16 475.791C2887.15 500.33 2891.31 522.28 2909.11 541.511C2914.28 547.098 2918.43 553.46 2923.07 559.939C2925.51 563.715 2927.91 567.016 2930.32 570.318C2934.3 580.67 2938.28 591.021 2942.61 602.266C2945 607.388 2947.04 611.615 2949.09 616.224C2949.47 617.257 2949.84 617.909 2950.22 618.561Z" fill="#2f3637" fill-rule="nonzero" opacity="1" stroke="none" vectornator:layerName="path"/>
<path d="M2868 236.916C2850.87 248.788 2833.84 260.33 2818.22 273.566C2812.04 278.8 2804 282.335 2796.54 286.222C2784.88 292.299 2772.78 297.701 2761.26 303.979C2749.87 310.187 2738.33 315.922 2725.28 318.649C2721.96 319.345 2720.19 320.494 2721.08 324.179C2718.02 331.187 2715.49 337.957 2712.04 344.32C2697.6 370.956 2682.9 397.472 2668.26 424.023C2666.8 426.672 2665.2 429.256 2663.8 431.641C2651.49 431.501 2631.95 425.838 2620.82 419.087C2622.6 414.419 2624.38 409.469 2626.38 404.596C2634.45 384.992 2642.61 365.418 2650.69 345.817C2652.91 340.43 2655.25 335.029 2654.06 329.075C2653.85 328.02 2653.47 326.993 2652.84 324.816C2644.73 349.415 2633.6 371.676 2623.62 394.332C2619.02 404.791 2613.91 415.075 2608.73 425.316C2605.66 431.379 2605.36 431.274 2598.2 429.946C2587.95 428.044 2578.09 425.222 2568.57 420.069C2568.95 417.971 2569.14 415.953 2569.67 414.01C2576.69 388.359 2583.48 362.655 2590.92 337.103C2594.36 325.27 2594.31 313.665 2592.44 301.674C2590.1 286.673 2589 271.516 2586.98 256.468C2585.51 245.547 2584.2 234.529 2581.42 223.851C2577.36 208.265 2576.4 193.051 2582.31 177.699C2585.66 169.024 2588.31 160.135 2591.47 151.397C2592.6 148.255 2593.5 145.353 2589.86 143.003C2592.41 139.487 2596.03 138.22 2599.63 137.295C2622.33 131.466 2645.38 129.386 2669.03 130.732C2692.65 132.075 2714 140.098 2735.72 147.2C2748.87 151.501 2761.76 156.446 2774.85 160.914C2803.49 170.69 2826.71 187.022 2845.47 208.635C2853.31 217.667 2860.48 227.174 2868 236.916M2639.09 290.36C2632.69 285.896 2625.92 281.792 2619.99 276.862C2614.61 272.384 2610.16 266.995 2605.26 262.032C2603.85 260.6 2602.58 258.446 2599.88 260.526C2607.04 271.991 2625.15 288.156 2637.05 293.489C2639.58 294.626 2642.49 295.08 2645.36 295.886C2647.5 283.186 2636.46 238.132 2629.93 232.249C2627.14 235.231 2629.6 238.014 2630.43 240.528C2635.74 256.601 2640.13 272.82 2640.64 290.113C2640.64 290.113 2640.11 290.591 2639.09 290.36M2710.8 247.272C2712.98 263.506 2714.59 279.821 2718.22 296.071C2733.72 290.314 2770.43 240.914 2768.92 228.353C2765.64 229.254 2765.24 232.012 2764.11 234.112C2755.11 250.887 2744.97 267.025 2731.65 281.367C2728.8 284.441 2725.59 287.245 2721.63 291.05C2717.61 273.032 2716.93 255.951 2713.2 238.381C2709.34 241.222 2710.93 243.852 2710.8 247.272Z" fill="#f2b66d" fill-rule="nonzero" opacity="1" stroke="none" vectornator:layerName="path"/>
<path d="M1491.27 318.619C1499.32 317.582 1506.2 320.066 1512.64 323.289C1537.55 335.742 1560.8 350.423 1583.08 366.415C1588.85 370.563 1592.26 375.491 1591.38 383.037C1594.75 394.539 1598.01 405.369 1601.15 416.228C1611.83 453.118 1622.61 489.983 1632.97 526.945C1634.82 533.551 1635.67 540.576 1635.62 547.399C1635.3 594.327 1634.61 641.253 1634.02 688.179C1634 689.761 1633.75 691.339 1633.54 693.615C1617.21 694.289 1601.02 694.956 1583.98 695.659C1581.28 670.065 1578.64 644.974 1575.91 618.712C1575.22 611.957 1574.62 606.375 1573.97 600.41C1572.64 600.935 1571.85 601.04 1571.41 601.448C1555.95 615.863 1540.52 630.306 1525.09 644.745C1514.57 654.074 1504.05 663.404 1493.53 672.734C1492.44 673.7 1491.36 674.677 1490.27 675.635C1483.93 681.16 1483.19 681.254 1476.47 675.876C1467.9 669.019 1459.4 662.086 1451.02 655.038C1446.37 651.125 1446.27 650.461 1450.45 645.916C1473.05 621.337 1495.62 596.736 1518.53 572.395C1524.1 566.477 1530.52 561.064 1537.24 556.209C1548.87 547.813 1552.37 537.344 1547.83 524.954C1545.37 518.26 1541.8 511.79 1537.86 505.676C1530.14 493.696 1519.92 483.404 1509.52 473.278C1502.94 466.874 1496.24 460.557 1489.96 453.922C1477.39 440.645 1467.25 425.927 1463.92 408.531C1457.49 375.01 1465.34 344.662 1491.27 318.619Z" fill="#2f3637" fill-rule="nonzero" opacity="1" stroke="none" vectornator:layerName="path"/>
<path d="M2137.02 617.242C2135.99 613.547 2136.58 610.17 2138.35 606.614C2140.67 601.933 2143.29 597.14 2142.67 590.791C2128.45 594.797 2115.19 599.142 2101.38 604.488C2100.33 604.927 2100.1 605.049 2099.87 605.17C2099.44 605.175 2099.01 605.179 2098.01 604.639C2095.87 599.758 2094.16 595.456 2092.75 591.077C2091.74 587.941 2089.66 586.583 2086.29 585.18C2081.85 583.33 2077.71 580.203 2074.5 576.807C2070.41 572.479 2066.97 567.534 2063.99 562.494C2059.32 554.593 2055.31 546.379 2050.96 538.324C2050.04 536.631 2049.81 534.041 2045.7 535.007C2046.22 536.69 2046.46 538.454 2047.28 539.96C2052.56 549.644 2057.76 559.373 2063.4 568.887C2068.14 576.887 2074.59 583.661 2083.32 588.44C2082.46 589.317 2081.6 590.193 2080.07 591.62C2076.94 594.527 2074.48 596.884 2072.02 599.241C2069.96 600.918 2067.8 602.51 2065.85 604.285C2046.39 622.023 2027 639.829 2007.5 657.535C1997.5 666.617 1997.23 666.532 1987.11 657.759C1982.92 654.124 1978.66 650.556 1973.72 646.352C1978.49 640.321 1982.85 634.807 1987.79 628.59C1992.67 622.858 1996.95 617.829 2001.23 612.8C2002.02 612.008 2002.81 611.215 2004.18 609.768C2007.11 606.242 2009.47 603.372 2011.82 600.502C2017.97 593.536 2024.2 586.633 2030.19 579.558C2031.5 578 2032.42 575.891 2032.71 573.938C2035.19 557.138 2037.11 540.298 2035.46 522.239C2034.47 519.592 2033.62 518.014 2032.57 515.986C2031.98 513.809 2031.57 512.083 2030.82 508.85C2033.87 511.338 2035.6 512.876 2037.47 514.254C2039.37 515.646 2041.41 516.879 2043.55 518.288C2045.6 516.617 2047.21 515.503 2048.56 514.168C2054.78 507.996 2055.23 504.015 2050.63 496.82C2048.85 494.035 2046.82 491.366 2045.25 488.488C2044.6 487.295 2044.87 485.692 2044.56 482.636C2048.83 485.335 2051.77 487.019 2054.49 488.951C2056.88 490.653 2058.94 492.737 2061.31 494.467C2066.21 498.037 2069.11 498.035 2072.99 493.751C2074.98 491.557 2076.46 488.638 2077.07 485.851C2078.35 479.981 2075.82 474.958 2071.02 470.999C2066.7 467.439 2062.07 464.188 2057.71 460.66C2055.58 458.929 2052.59 457.563 2052.8 454.177C2056.56 452.398 2059.42 454.277 2062.17 455.711C2066.35 457.891 2070.27 460.479 2074.43 462.7C2078.88 465.077 2081.5 464.948 2084.12 462.612C2086.92 460.124 2087.6 455.622 2085.45 452.396C2084.44 450.879 2083.03 449.584 2081.53 447.893C2085.58 444.833 2092.11 443.82 2091.19 437.509C2111 440.424 2129.18 447.344 2146.33 456.452C2187.91 478.537 2219.09 509.509 2241.07 548.173C2242.08 549.954 2242.55 551.989 2243.11 554.374C2242.27 555.13 2241.34 555.25 2240.95 555.73C2231.02 567.958 2217.15 575.88 2203.41 583.959C2200.9 585.436 2198.6 587.206 2195.39 589.334C2192.55 590.716 2190.43 591.479 2188.48 592.511C2174.85 599.752 2161.33 607.172 2147.58 614.232C2144.44 615.843 2140.56 616.27 2137.02 617.242M2145.47 580.74C2144.52 578.612 2143.6 576.475 2142.62 574.357C2135.48 558.9 2128.37 543.431 2121.13 528.013C2120.25 526.147 2119.94 523.458 2115.94 523.187C2115.94 524.559 2115.57 525.717 2115.99 526.565C2125.75 546.52 2134.38 566.923 2144.12 586.888C2144.85 586.727 2145.57 586.566 2146.3 586.405C2146.14 584.84 2145.98 583.275 2145.47 580.74Z" fill="#f2b66d" fill-rule="nonzero" opacity="1" stroke="none" vectornator:layerName="path"/>
<path d="M1904.95 631.58C1907.66 633.045 1910.37 634.511 1913.93 636.435C1911.92 637.699 1910.9 638.615 1909.66 639.083C1899.06 643.1 1887.8 644.844 1876.49 645.58C1872.01 645.87 1867.3 643.673 1862.75 642.459C1859.17 641.503 1855.66 640.316 1850.88 639.195C1846.96 639.205 1844.28 639.253 1841.6 639.3C1838.52 639.354 1837.22 640.84 1837.43 643.537C1834.46 650.711 1830.9 657.78 1832.47 667.012C1832.48 671.787 1832.48 675.331 1832.48 679.307C1835.95 679.307 1838.44 679.296 1840.92 679.309C1853.78 679.376 1866.64 679.375 1879.5 679.586C1881.83 679.624 1884.14 680.537 1886.46 681.045C1889.37 698.94 1885.21 716.232 1880.91 733.5C1879.9 737.523 1878.54 741.474 1877.39 745.468C1876.36 749.033 1875.42 752.585 1870.83 753.962C1869.97 754.22 1869.16 755.093 1868.68 755.863C1866 760.216 1862.26 762.906 1856.79 764.442C1853.65 765.323 1851.26 766.995 1847.74 765.41C1846.09 764.669 1843.68 765.475 1841.73 765.089C1839.4 764.627 1836.79 764.098 1835.01 762.797C1829.4 758.669 1823.56 757.128 1816.64 759.795C1815.13 760.38 1812.84 760.992 1811.67 760.384C1805.71 757.268 1799.45 757.928 1793.22 758.603C1783.41 745.181 1768.49 693.273 1770.79 679.334C1779.96 679.334 1789.3 679.334 1798.64 679.334C1807.73 679.334 1816.82 679.334 1826.46 679.334C1826.46 673.146 1826.66 667.684 1826.34 662.248C1826.24 660.605 1824.87 658.932 1823.79 657.448C1821.14 653.805 1818.32 650.265 1815.03 645.949C1813.48 643.907 1812.48 642.6 1811.48 641.292C1808.74 633.988 1806.01 626.684 1802.97 618.404C1802.32 616.432 1801.97 615.436 1801.38 613.699C1798.86 615.427 1796.82 616.823 1794.78 618.22C1794.63 618.468 1794.48 618.716 1793.96 619.643C1790.13 624.961 1786.68 629.601 1783.22 634.24C1775.94 639.699 1767.83 641.282 1758.44 639.637C1753.37 638.75 1747.97 639.479 1742.14 639.479C1741.58 634.402 1744.29 630.665 1747.48 627.243C1755.99 618.134 1767.36 614.29 1780.12 613.257C1782.38 613.074 1784.67 613.273 1788.13 613.41C1793.4 615.478 1796.5 613.062 1799.76 611.565C1802.28 610.406 1802.1 608.349 1801.57 606.262C1802.96 599.289 1804.34 592.315 1805.9 584.495C1801.99 581.927 1797.43 578.74 1792.63 575.895C1791.08 574.977 1788.87 574.581 1786.97 574.608C1782.92 574.667 1778.85 575.01 1774.83 575.502C1763.2 576.926 1752.56 575.344 1743.54 567.944C1737.13 562.688 1729.52 560.748 1720.28 561.342C1719.59 560.467 1719.59 560.027 1719.59 559.586C1742.45 547.488 1767.78 549.574 1787.23 565.38C1791.51 568.856 1795.81 572.207 1801.62 575.334C1804.14 577.334 1805.85 578.792 1808.13 580.73C1811.41 577.57 1814.4 574.675 1817.4 571.78C1825.69 565.585 1825.7 565.025 1818.21 554.609C1819.43 553.839 1820.03 553.716 1820.63 553.656C1820.64 553.719 1820.57 553.61 1820.66 553.956C1821.16 554.59 1821.57 554.877 1822.57 554.902C1823.26 548.239 1823.34 541.838 1823.43 535.437C1827.56 535.006 1827.74 537.792 1827.91 540.226C1828.25 545.04 1828.27 549.871 1828.5 554.693C1828.6 556.874 1828.88 559.049 1829.17 562.113C1839.9 555.868 1850.34 551.381 1863.28 550.249C1865.57 550.097 1866.75 550.061 1868.44 550.249C1872.77 550.966 1876.61 551.459 1880.46 551.952C1884.39 553.251 1888.33 554.55 1893.31 556.186C1901.27 557.822 1908.17 559.121 1915.08 560.422C1916.57 560.619 1918.14 560.622 1919.52 561.083C1920.44 561.39 1921.09 562.353 1920.96 563.317C1919.37 564.066 1918.68 564.519 1918 564.973C1919.06 565.4 1920.12 565.828 1921.18 566.256C1921.32 568.575 1919.43 568.691 1916.51 568.867C1911.05 569.514 1906.72 570.211 1901.73 570.848C1896.08 570.589 1891.1 570.39 1885.46 570.111C1870.59 570.041 1858 565.702 1846.5 557.577C1841.65 560.291 1837.07 562.708 1832.69 565.389C1831.34 566.216 1829.64 567.755 1829.63 568.988C1829.5 576.687 1829.81 584.391 1829.98 592.338C1832.63 592.08 1834.13 591.935 1835.59 592.191C1835.58 593.397 1835.61 594.201 1835.63 595.005C1834.77 595.245 1833.92 595.485 1832.37 596.134C1831.54 597.017 1831.41 597.49 1831.28 597.963C1829.49 606.205 1832.96 613.425 1836.93 621.599C1837.81 627.065 1838.44 631.53 1839.03 635.736C1843.49 635.736 1847.74 635.437 1851.91 635.81C1857.56 636.313 1862.24 634.784 1866.38 631.488C1873.28 629.202 1880.38 628.021 1889.02 628.426C1895.18 629.521 1900.06 630.55 1904.95 631.58M1774.3 622.072C1773.65 621.12 1773 620.167 1772.35 619.215C1771.56 620.364 1770.76 621.513 1768.82 622.954C1765.77 624.236 1761.44 623.145 1758.86 627.627C1764.44 626.784 1769.06 626.135 1773.64 625.294C1773.99 625.23 1774.04 623.804 1774.3 622.072M1813.81 609.065C1811.54 609.946 1809.27 610.827 1807.22 611.622C1808.07 625.66 1817.25 644.659 1825.73 650.499C1826.74 638.111 1825.67 613.28 1823.68 607.684C1820.89 608.037 1817.95 608.406 1813.81 609.065M1812.99 605.285C1816.62 604.735 1820.25 604.186 1824.53 603.538C1820.85 597.296 1816.92 592.105 1810.12 586.796C1808.51 594.488 1807.23 600.592 1805.75 607.657C1808.67 606.72 1810.25 606.212 1812.99 605.285M1823.73 595.211C1826.18 588.043 1824.38 580.898 1824.39 573.202C1817.14 574.568 1815.75 580.303 1812.11 582.98C1815.88 587.017 1819.42 590.806 1823.73 595.211M1834.23 627.035C1833.62 624.91 1833.01 622.785 1832.41 620.66C1832.24 620.76 1832.08 620.86 1831.91 620.96C1831.91 628.678 1831.91 636.396 1831.91 644.114C1832.44 644.13 1832.97 644.145 1833.5 644.161C1834.47 638.911 1834.75 633.6 1834.23 627.035M1892.07 560.123C1888.85 559.139 1885.63 558.155 1882.42 557.171C1882.27 557.558 1882.12 557.944 1881.97 558.331C1887.22 560.546 1892.46 562.761 1897.7 564.976C1897.99 564.484 1898.28 563.991 1898.57 563.499C1896.74 562.517 1894.92 561.535 1892.07 560.123M1878.85 638.885C1882.08 638.773 1885.51 639.985 1888.43 637.004C1884.43 637.004 1880.43 637.004 1876.04 637.004C1876.75 637.715 1877.22 638.19 1878.85 638.885M1762.12 561.085C1761.47 559.095 1760.75 557.22 1757.49 558.535C1757.99 559.406 1758.17 560.163 1758.69 560.539C1759.45 561.09 1760.45 561.369 1762.12 561.085Z" fill="#333939" fill-rule="nonzero" opacity="1" stroke="none" vectornator:layerName="path"/>
<path d="M2457.36 627.004C2447.22 645.488 2433.73 661.612 2415.78 674.464C2413.23 676.288 2412.4 678.039 2412.53 680.772C2413.04 691.515 2413.65 702.264 2413.69 713.011C2413.71 717.821 2415.22 720.85 2420.62 721.955C2422.33 722.303 2423.9 723.144 2426.37 724.331C2432.95 725.249 2432.81 729.046 2431.91 734.105C2434.22 732.281 2435.26 731.427 2436.33 730.617C2437.61 729.657 2438.92 728.735 2440.22 727.796C2444.73 730.324 2449.55 732.5 2453.69 735.451C2462.49 741.716 2471.28 747.887 2481.66 751.946C2483.23 752.56 2484.55 753.688 2485.94 754.55C2483.39 759.349 2482.46 759.93 2478.18 758.865C2475.75 758.258 2473.42 757.306 2471.08 756.412C2461.49 752.738 2452.62 754.111 2444.67 759.869C2440.73 762.723 2437.32 766.181 2433.7 769.388C2425.43 776.705 2419.59 777.088 2410.31 770.634C2406.9 768.26 2403.68 765.635 2400.57 762.938C2393.69 756.978 2385.78 756.266 2377.3 759.218C2372.82 760.779 2368.51 762.771 2364.24 764.783C2353.61 769.793 2343.88 769.016 2334.65 761.85C2329.47 757.821 2324.01 754.027 2318.35 750.561C2314.12 747.975 2309.44 746.92 2304.8 752.019C2303.1 754.48 2302.02 756.204 2300.94 757.928C2300.53 758.196 2300.17 758.58 2299.71 758.715C2289.97 761.613 2280.21 764.484 2270.46 767.359C2263.03 765.318 2255.56 763.37 2248.2 761.138C2247 760.777 2246.28 759.151 2244.62 757.319C2251.68 751.564 2258.65 746.094 2267.02 742.272C2270.72 740.581 2274.09 737.696 2279.48 739.234C2280.14 741.274 2280.14 742.793 2280.14 745.481C2282.03 741.655 2283.34 739.003 2285.08 736.139C2286.28 735.07 2287.06 734.211 2287.79 733.4C2287.75 733.448 2287.87 733.508 2287.87 733.508C2291.04 731.303 2294.24 729.128 2297.37 726.885C2304.74 721.623 2311.89 716.105 2319.47 711.112C2326.82 706.268 2335.22 703.758 2345.52 703.918C2346.86 703.825 2347.13 703.757 2347.75 703.834C2348.08 703.979 2348.82 704.126 2349.22 704.427C2350.14 706.178 2350.66 707.629 2351.6 710.238C2353.09 706.96 2354 704.968 2354.91 702.977C2358.04 702.967 2361.18 702.958 2365.57 703.02C2373.88 704.777 2381.03 706.163 2387.94 708.241C2393.65 709.96 2399.06 712.497 2404.95 714.917C2405.75 714.536 2406.19 713.909 2406.59 712.783C2405.07 710.085 2403.59 707.887 2402.61 705.63C2405.08 704.852 2407.83 704.54 2405.59 700.967C2405.28 684.479 2404.98 668.64 2404.87 652.801C2404.76 637.083 2404.84 621.363 2404.84 605.689C2401.34 605.208 2398.11 604.763 2394.87 604.318C2392.45 602.882 2390.03 601.446 2387.41 599.191C2387.85 597.685 2388.47 596.999 2389.64 596.506C2391.17 596.695 2392.15 596.692 2393.13 596.646C2393.13 596.604 2393.04 596.629 2392.62 596.986C2392.81 597.823 2393.42 598.303 2394.03 598.783C2394.24 598.051 2394.45 597.32 2394.93 596.263C2396.04 595.215 2396.89 594.491 2398.21 594.05C2399.84 596.904 2401.43 598.777 2404.95 597.439C2406.89 577.817 2405.06 565.156 2397.94 548.902C2391.3 533.735 2383.26 519.221 2373.06 505.162C2372.67 502.421 2372.31 500.233 2371.94 498.045C2374.35 500.473 2376.77 502.9 2379.76 506.063C2386.96 517.731 2393.59 528.663 2400.33 539.785C2400.65 539.114 2400.98 538.744 2400.98 538.373C2401.04 522.287 2401.1 506.2 2401.09 490.114C2401.09 488.794 2400.93 487.366 2400.36 486.174C2398.07 481.341 2395.49 476.62 2393.21 471.784C2388.77 462.375 2383.06 453.797 2374.18 447.214C2373.16 446.396 2372.14 445.577 2370.51 444.063C2368.66 441.127 2365.33 439.14 2368.86 436.32C2370.95 437.863 2373.05 439.406 2375.81 441.543C2381.42 447.389 2386.85 452.327 2391.13 457.982C2395.27 463.46 2398.22 469.676 2402.45 476.848C2404.96 453.094 2405.02 430.919 2399.84 408.889C2399.18 405.557 2398.52 402.226 2397.69 397.83C2397.19 393.638 2394.43 390.456 2397.43 387.131C2400.98 387.884 2401.06 390.536 2401.94 392.494C2403.35 395.646 2404.45 398.915 2405.68 402.135C2406.65 407.811 2407.62 413.486 2408.75 420.283C2409.72 431.709 2411.42 442.033 2411.14 452.314C2410.69 469.295 2408.96 486.248 2407.8 503.215C2407.69 504.865 2407.78 506.526 2407.78 509.219C2414.06 501.679 2421.09 480.871 2425 461.509C2426.68 462.175 2427.84 462.772 2428.89 463.926C2426.46 474.462 2424.13 484.44 2421.44 495.95C2428.41 491.034 2434.14 486.997 2440.32 483.178C2441.66 484.273 2442.56 485.152 2443.45 486.031C2435.83 491.59 2427.54 496.566 2420.8 502.896C2415.54 507.844 2411.9 514.319 2408.21 520.446C2407.07 522.337 2408.13 525.315 2408.25 528.968C2408.49 536.196 2409.01 542.208 2410.54 547.691C2422.74 535.125 2434.79 522.722 2446.83 510.32C2448.95 508.804 2451.07 507.288 2454.11 505.662C2455.76 506.387 2456.48 507.221 2457.21 508.055C2442.11 520.436 2429.22 534.547 2416.93 549.208C2412.3 554.729 2410.04 560.127 2411.7 567.995C2412.27 578.306 2412.77 587.455 2413.26 596.604C2413.09 605.381 2412.93 614.158 2412.71 624.204C2411.83 639.662 2411.65 653.843 2412.32 669.416C2415.95 666.761 2418.42 665.257 2420.46 663.377C2422.25 661.722 2425.32 660.59 2425 657.493C2427.4 656.178 2429.64 655.04 2431.1 653.356C2434.94 648.952 2438.45 644.308 2442.32 639.316C2447.5 631.787 2453.44 625.083 2453.74 616.189C2458.44 619.144 2456.92 623.308 2457.36 627.004Z" fill="#343a3a" fill-rule="nonzero" opacity="1" stroke="none" vectornator:layerName="path"/>
<path d="M2090.95 437.083C2092.11 443.82 2085.58 444.833 2081.53 447.893C2083.03 449.584 2084.44 450.879 2085.45 452.396C2087.6 455.622 2086.92 460.124 2084.12 462.612C2081.5 464.948 2078.88 465.077 2074.43 462.7C2070.27 460.479 2066.35 457.891 2062.17 455.711C2059.42 454.277 2056.56 452.398 2052.8 454.177C2052.59 457.563 2055.58 458.929 2057.71 460.66C2062.07 464.188 2066.7 467.439 2071.02 470.999C2075.82 474.958 2078.35 479.981 2077.07 485.851C2076.46 488.638 2074.98 491.557 2072.99 493.751C2069.11 498.035 2066.21 498.037 2061.31 494.467C2058.94 492.737 2056.88 490.653 2054.49 488.951C2051.77 487.019 2048.83 485.335 2044.56 482.636C2044.87 485.692 2044.6 487.295 2045.25 488.488C2046.82 491.366 2048.85 494.035 2050.63 496.82C2055.23 504.015 2054.78 507.996 2048.56 514.168C2047.21 515.503 2045.6 516.617 2043.55 518.288C2041.41 516.879 2039.37 515.646 2037.47 514.254C2035.6 512.876 2033.87 511.338 2030.82 508.85C2031.57 512.083 2031.98 513.809 2032.58 516.47C2032.75 518.045 2032.71 518.686 2032.67 519.327C2029.04 519.93 2026.33 518.446 2023.8 516.297C2021.1 513.993 2018.07 512.545 2013.52 514.758C2014.6 519.502 2015.71 524.342 2016.87 529.43C2013.37 533.544 2008.47 535.669 2002.72 537.1C1998.27 531.254 1993.86 525.46 1988.8 519.003C1987.06 517.401 1986.11 516.204 1984.83 515.579C1982.07 514.238 1979.9 514.578 1979.54 517.927C1978.29 521.78 1979.81 525.171 1981.76 528.458C1984.03 532.283 1986.39 536.067 1988.87 540.146C1985.47 543.231 1981.28 544.107 1977.14 544.837C1972.82 545.596 1969.83 543.439 1967.56 540.424C1961.68 532.64 1958.42 523.986 1958.06 514.598C1957.84 508.87 1958.36 503.116 1958.61 497.377C1958.81 492.784 1959.1 488.194 1959.36 483.603C1959.65 478.32 1958.27 473.331 1954.24 469.55C1936.89 453.275 1943.65 418.808 1960.29 404.419C1969.94 396.075 1980.97 392.119 1995.51 394.776C1999 395.475 2001.33 395.999 2003.67 396.522C2017.31 402.677 2028.15 411.805 2036.96 422.876C2042.81 430.225 2050.3 432.904 2060 431.319C2064.72 430.548 2069.5 430.025 2074.25 429.465C2081.46 428.617 2087.25 430.478 2090.95 437.083M2014.12 488.822C2015.25 488.822 2016.38 488.822 2017.84 488.822C2016.39 483.076 2015.33 477.903 2013.75 472.861C2012.24 468.039 2010.43 463.263 2008.32 458.631C2005.66 452.816 2000.46 449.792 1993.59 449.281C1984.68 448.617 1975.86 449.341 1967.29 451.676C1963.96 452.582 1960.56 453.712 1958.92 457.556C1961.76 462.142 1966.09 465.608 1970.6 468.895C1983.18 478.079 1997.45 484.343 2014.12 488.822Z" fill="#303636" fill-rule="nonzero" opacity="1" stroke="none" vectornator:layerName="path"/>
<path d="M2613.09 672.938C2622.44 673.307 2631.79 673.677 2642.11 674.085C2642.24 676.763 2642.5 679.407 2642.48 682.05C2642.33 703.759 2638.12 724.977 2632.85 746.06C2632.3 748.261 2631.87 750.302 2628.86 751.367C2622.25 753.703 2618.15 757.952 2618.93 765.527C2609.5 760.757 2600.83 762.586 2592.14 765.771C2590.4 766.406 2588.08 766.695 2586.35 766.204C2580.49 764.537 2574.75 765.089 2569.07 766.487C2565.05 767.477 2561.51 767.988 2557.41 766.009C2554.21 764.462 2550.15 763.928 2546.43 763.78C2540.93 763.561 2538.52 760.625 2536.36 756.674C2529.6 744.263 2524.61 731.281 2520.64 717.955C2516.8 705.073 2514.03 692.018 2513.06 678.683C2512.96 677.363 2513.05 676.031 2513.05 673.864C2532.51 673.65 2551.47 673.441 2571.68 673.22C2576.17 673.128 2579.42 673.048 2582.98 673.15C2584.45 673.079 2585.61 672.827 2587.47 672.747C2596.48 672.926 2604.79 672.932 2613.09 672.938Z" fill="#6d7847" fill-rule="nonzero" opacity="1" stroke="none" vectornator:layerName="path"/>
<path d="M1709.82 216.14C1704.8 220.995 1700.34 226.047 1695 230.173C1682.34 239.964 1655.66 237.929 1643.85 230.669C1640.01 228.305 1637.93 225.257 1638.16 220.879C1638.38 216.768 1638.16 212.639 1638 207.882C1637.56 201.883 1640.52 198.888 1646.09 197.389C1651.43 195.953 1656.55 193.873 1661.91 192.522C1672.71 189.797 1680.92 184.103 1686.94 175.666C1692.03 168.536 1696.84 161.236 1702.26 154.317C1706.48 148.915 1711.01 143.587 1716.19 138.939C1723.09 132.742 1731.81 129.742 1741.71 129.851C1754.34 129.991 1762.47 135.787 1765.29 147.911C1760.94 149.516 1756.79 149.787 1753.14 151.15C1750.07 152.296 1744.9 152.436 1745.68 157.667C1752.08 156.137 1758.11 154.824 1764.02 153.173C1765.2 152.844 1765.94 151.223 1766.88 150.198C1769.01 150.391 1771.15 150.583 1774.38 150.975C1777.15 151.64 1778.83 152.105 1780.51 152.57C1793.98 159.677 1803.46 169.593 1807.3 183.52C1808.63 188.341 1809.97 193.16 1811.43 197.949C1813.88 205.949 1812.43 213.44 1807.49 220.268C1803.48 225.809 1797.66 228.718 1790.12 228.317C1787.72 228.19 1785.5 227.858 1786.06 224.578C1789.85 223.086 1792.84 222.089 1795.84 221.092C1795.64 220.55 1795.44 220.009 1795.24 219.467C1792.05 220.438 1788.86 221.41 1785.67 222.381C1784.9 221.379 1784.12 220.376 1783.47 218.533C1788.05 216.791 1792.5 215.888 1796.95 214.985C1796.84 214.559 1796.74 214.134 1796.63 213.708C1791.3 214.426 1785.96 215.144 1780.17 215.654C1778.6 214.778 1777.48 214.109 1776.37 213.441C1776.37 213.441 1776.32 213.072 1776.32 212.428C1779.83 210.68 1783.32 209.575 1786.82 208.471C1786.68 208.03 1786.55 207.59 1786.41 207.15C1781.82 207.844 1777.24 208.538 1772.66 209.233C1769.15 206.069 1765.59 202.949 1762.15 199.725C1760.07 197.774 1758.18 195.66 1755.33 193.114C1745.88 192.981 1742.34 195.898 1741.58 203.219C1741.26 204.768 1740.94 206.318 1740.59 208.039C1736.62 207.751 1732.76 207.472 1727.93 206.828C1724.19 205.013 1721.44 203.561 1718.31 201.912C1715.66 206.55 1713.07 211.092 1710.47 215.634C1710.47 215.634 1709.97 215.916 1709.82 216.14M1797.74 219.031C1798.33 219.126 1798.91 219.22 1799.49 219.315C1799.12 219.029 1798.74 218.744 1797.74 219.031Z" fill="#2f3637" fill-rule="nonzero" opacity="1" stroke="none" vectornator:layerName="path"/>
<path d="M2951.92 688.451C2953.45 687.323 2954.99 686.208 2956.51 685.063C2960.55 682.002 2964.58 678.929 2968.88 675.433C2972.38 675.006 2975.62 675.006 2979.06 675.006C2981.88 684.215 2981.35 692.942 2980.61 701.583C2980.11 707.51 2978.83 713.419 2977.38 719.231C2976.35 723.384 2975.85 727.262 2977.77 731.324C2980.22 736.508 2978.4 740.465 2973.36 743.809C2969.93 746.079 2967.57 749.714 2964.04 751.778C2959.66 754.344 2955.35 757.028 2950.22 758.752C2944.11 760.807 2939.22 758.884 2933.78 757.503C2926.4 755.63 2918.87 754.933 2911.16 756.196C2904.42 757.299 2898.4 759.33 2893.8 765.012C2886.85 761.238 2879.81 762.391 2872.72 764.897C2869.87 765.907 2861.8 763.106 2860.91 760.878C2859.46 757.278 2861.64 754.709 2864.37 752.425C2865.47 751.505 2866.64 750.652 2867.89 749.683C2852.87 726.836 2844.23 702.611 2844.97 675.393C2857.83 674.995 2869.96 674.62 2882.73 674.087C2888.1 681.184 2892.61 688.551 2897.57 695.66C2902.17 702.237 2902.38 702.105 2911.21 700.367C2912.19 700.174 2913.22 700.172 2914.81 700.64C2914.62 704.712 2913.84 708.224 2912.86 712.633C2928.72 711.244 2942.42 705.852 2956.26 701.146C2954.7 696.569 2953.31 692.51 2951.92 688.451Z" fill="#6d7847" fill-rule="nonzero" opacity="1" stroke="none" vectornator:layerName="path"/>
<path d="M2540.51 91.7882C2542.77 92.8 2545.17 93.614 2547.25 94.8697C2550.39 96.7708 2554.09 98.4831 2556.17 101.153C2561.78 108.341 2567.32 115.777 2571.82 123.43C2580.2 137.65 2567.4 153.484 2548.08 153.814C2547.79 151.881 2547.68 149.85 2547.14 147.92C2545.73 142.929 2542.42 139.29 2536.96 137.575C2532.93 136.308 2530.58 137.672 2530.16 141.551C2529.91 143.816 2530.21 146.131 2530.28 148.424C2530.49 156.404 2529.21 157.9 2520.55 159.755C2519.34 160.014 2518.13 160.261 2516.57 160.585C2515.47 174.046 2505.62 180.799 2492.98 184.757C2479.99 188.825 2470.55 183.525 2467.66 171.285C2466.91 168.138 2466.44 165.204 2462.28 163.722C2451.15 159.764 2451.09 141.915 2459.32 136.591C2463.78 133.714 2464.56 130.477 2464.83 126.177C2465.08 122.35 2465.62 118.318 2471.31 117.273C2472.43 117.067 2473.16 114.885 2473.97 113.564C2477.14 108.379 2479.89 102.936 2483.54 98.0494C2486.86 93.6178 2491.95 91.4571 2498.13 92.4477C2502.44 93.1388 2506 92.5857 2508.72 88.9279C2510.95 85.9386 2514.63 85.5478 2518.33 86.3476C2521.04 86.9326 2523.69 87.7495 2527.46 88.6908C2532.54 89.8752 2536.53 90.8317 2540.51 91.7882Z" fill="#303637" fill-rule="nonzero" opacity="1" stroke="none" vectornator:layerName="path"/>
<path d="M2406.32 402.107C2404.45 398.915 2403.35 395.646 2401.94 392.494C2401.06 390.536 2400.98 387.884 2397.43 387.131C2394.43 390.456 2397.19 393.638 2397.49 397.301C2395.68 396.621 2393.35 395.727 2392.2 394.138C2379.03 376.022 2369.43 356.741 2370.02 334.467C2370.11 331.097 2370.87 327.568 2372.23 324.431C2375.74 316.281 2383.12 315.367 2388.99 322.255C2391.3 324.961 2393 328.093 2394.97 331.035C2396.42 333.194 2397.7 335.464 2399.33 337.498C2401.85 340.639 2404.61 341.123 2407.55 338.325C2410.29 335.718 2412.17 332.372 2414.4 329.335C2416.01 327.149 2416.33 323.399 2420.14 323.683C2424.28 323.991 2426.1 327.517 2426.51 330.596C2427.38 337.138 2427.43 343.774 2427.67 350.376C2427.72 351.954 2427.07 353.542 2426.95 355.139C2426.52 360.887 2427.51 362.102 2433.79 362.054C2437.53 362.025 2438.73 363.56 2439.11 366.468C2440.09 374.005 2437.49 380.589 2432.25 386.271C2425.48 393.627 2417.34 399.35 2406.32 402.107Z" fill="#e59e3d" fill-rule="nonzero" opacity="1" stroke="none" vectornator:layerName="path"/>
<path d="M1474.9 695.87C1476.06 696.467 1477.21 697.065 1477.83 698.168C1473.34 699.239 1468.86 697.419 1464.39 701.143C1467.73 701.143 1469.95 701.051 1472.16 701.171C1474.16 701.279 1476.81 700.147 1477.96 703.488C1473.22 704.147 1468.75 704.769 1464.28 705.391C1469.99 708.564 1476.73 704.009 1482.1 708.837C1467.74 713.27 1467.74 713.27 1467.04 715.96C1473.53 714.665 1480.13 713.349 1486.73 712.033C1492.67 720.593 1498.75 729.076 1504.45 737.762C1506.07 740.215 1506.57 743.26 1507.02 746.827C1499.9 751.435 1493.57 748.807 1487.58 746.642C1457.04 735.601 1430.7 718.776 1407.03 698.328C1404.89 696.483 1402.36 695.013 1400.01 693.37C1405.47 682.916 1414.3 675.12 1424.38 668.354C1427.68 666.136 1431.11 666.348 1434.06 668.964C1436.41 671.05 1439.03 673.095 1440.63 675.625C1446.85 685.461 1456.08 689.077 1469.25 687.791C1470.66 689.903 1471.06 691.66 1471.37 693.428C1471.7 695.283 1472.69 696.277 1474.9 695.87Z" fill="#e39b3f" fill-rule="nonzero" opacity="1" stroke="none" vectornator:layerName="path"/>
<path d="M2191.52 692.744C2195.38 689.182 2199.19 685.561 2203.13 682.072C2208.5 677.321 2215.27 674.934 2222.34 673.1C2227.64 671.724 2232.94 670.315 2238.76 669.443C2238.67 672.65 2238.18 675.364 2237.42 678.013C2230.31 702.783 2223.14 727.541 2216 752.303C2213.49 752.489 2210.95 752.519 2208.47 752.894C2203.88 753.591 2199.95 755.232 2197.03 758.855C2192.76 764.147 2190.38 764.106 2184.64 760.656C2181.46 758.742 2177.54 757.833 2173.51 756.304C2174.2 753.606 2175.44 750.581 2175.66 747.498C2175.94 743.434 2177.1 738.805 2171.01 736.36C2169.57 734.802 2168.67 733.259 2167.8 731.698C2166.5 729.344 2165.23 726.979 2164.26 723.717C2168.7 720.58 2173.03 718.606 2176.88 716.055C2185.56 710.314 2192.22 703.373 2191.52 692.744Z" fill="#6d7847" fill-rule="nonzero" opacity="1" stroke="none" vectornator:layerName="path"/>
<path d="M2738.35 720.96C2738.53 717.219 2737.54 713.222 2741.28 709.725C2744.06 712.655 2741.72 715.698 2742.51 718.719C2758.08 721.428 2773.42 721.768 2787.74 713.39C2789.18 715.171 2790.51 716.312 2791.17 717.711C2796.46 728.917 2798.78 740.589 2796.53 752.686C2794.86 761.668 2788.77 765.894 2778.77 764.98C2774.3 764.572 2769.82 763.259 2765.62 761.73C2757.22 758.671 2748.81 758.145 2740.33 760.877C2736.62 762.071 2733.51 761.704 2730.25 759.914C2721.46 755.081 2712.07 754.581 2702.32 757.059C2699.39 757.805 2696.47 758.652 2693.49 759.175C2684.43 760.76 2676.32 757.677 2671.89 750.975C2673.64 748.044 2676.91 748.401 2679.83 748.308C2697.8 747.736 2714.04 742.013 2729.77 734.724C2730.41 734.427 2730.92 733.9 2732.24 732.924C2727.38 730.692 2722.9 728.639 2718.21 726.488C2720.54 722.5 2723.68 723.291 2726.45 724.143C2729.07 724.949 2731.46 726.365 2734.98 727.694C2739.71 726.376 2737.95 723.369 2738.35 720.96Z" fill="#707a49" fill-rule="nonzero" opacity="1" stroke="none" vectornator:layerName="path"/>
<path d="M2892.13 475.239C2880.54 477.987 2871.33 473.523 2863.06 466.997C2851.69 458.024 2842.97 447.03 2834.85 435.627C2832.69 432.605 2832.56 429.994 2834.91 426.798C2840.93 418.645 2846.52 410.24 2852.52 401.591C2864.56 407.043 2874.92 413.412 2884.97 420.925C2886.35 422.378 2887.17 423.816 2888.26 425.06C2900.01 438.468 2905.06 453.073 2897.86 470.485C2896.89 471.875 2896.26 472.628 2895.09 473.347C2893.74 473.954 2892.94 474.597 2892.13 475.239Z" fill="#6d7847" fill-rule="nonzero" opacity="1" stroke="none" vectornator:layerName="path"/>
<path d="M2973.84 522.08C2971.91 506.193 2978.48 494.576 2994.73 487.514C3001.71 484.482 3009.49 482.486 3017.15 481.322C3031.14 479.197 3045.3 478.041 3059.74 476.443C3063.1 479.807 3062.16 484.006 3061.44 487.961C3059.94 496.229 3055.22 503.065 3048.16 508.29C3030.06 521.691 3008.98 527.111 2985.81 526.286C2983.62 526.208 2981.47 525.171 2978.54 523.998C2976.47 522.97 2975.16 522.525 2973.84 522.08Z" fill="#6d7847" fill-rule="nonzero" opacity="1" stroke="none" vectornator:layerName="path"/>
<path d="M1651.3 731.325C1661.95 737.177 1672.6 743.03 1683.21 748.864C1674.9 751.863 1667.31 754.784 1659.56 757.268C1657.66 757.876 1655.03 757.474 1653.02 756.82C1644.6 754.075 1636.19 753.941 1627.53 755.761C1625.25 756.241 1622.5 755.991 1620.25 755.316C1611.86 752.803 1603.54 751.467 1594.89 754.275C1593.56 754.709 1591.85 754.801 1590.49 754.46C1584.43 752.934 1578.44 751.195 1571.79 749.358C1572.34 743.339 1573.49 736.401 1578.3 731.994C1582.98 727.699 1590.16 725.541 1596.44 722.829C1597.58 722.338 1599.8 723.519 1601.34 724.249C1603.81 725.419 1606.08 726.928 1608.5 728.169C1615.64 731.815 1622.58 731.47 1629.24 727.145C1631.72 725.539 1634.05 723.711 1636.69 722.381C1637.63 721.908 1639.3 722.611 1640.47 723.611C1639.2 725.979 1638.1 727.514 1636.5 729.171C1634.75 730.005 1633.23 730.505 1632.3 731.469C1630.14 733.719 1631.56 734.568 1634.76 734.662C1636.98 735.167 1638.63 735.68 1640 736.568C1638.23 737.949 1635.83 738.695 1638.88 741.451C1643.03 738.071 1647.16 734.698 1651.3 731.325Z" fill="#e7a044" fill-rule="nonzero" opacity="1" stroke="none" vectornator:layerName="path"/>
<path d="M2614.59 599.422C2630.46 593.724 2647.18 593.293 2663.81 592.478C2665.9 599.821 2660.8 612.454 2652.03 621.069C2639.92 632.977 2624.84 637.392 2606.77 634.128C2612.2 628.746 2618.09 624.108 2623.96 619.458C2625.33 618.371 2627.71 617.739 2626.07 614.566C2623.9 615.694 2621.65 616.549 2619.82 617.873C2612.93 622.845 2606.17 627.97 2598.81 632.821C2594.49 631.467 2590.72 630.328 2586.82 628.625C2586.85 624.987 2587.02 621.913 2587.58 618.556C2588.15 617.458 2588.34 616.642 2588.55 615.877C2588.57 615.928 2588.46 615.886 2588.98 615.924C2590.96 614.636 2592.42 613.309 2594.32 611.794C2601.38 607.544 2607.99 603.483 2614.59 599.422Z" fill="#e59e42" fill-rule="nonzero" opacity="1" stroke="none" vectornator:layerName="path"/>
<path d="M2428.99 463.37C2427.84 462.772 2426.68 462.175 2424.85 460.983C2420.28 454.808 2418.76 448.67 2419.07 442.143C2419.33 436.694 2419.73 431.249 2420.07 425.803C2421.68 421.227 2422.92 416.512 2425.01 412.121C2426.58 408.815 2428.78 405.559 2431.48 402.927C2436.9 397.628 2443.11 399.23 2444.65 406.351C2445.51 410.346 2445.12 414.561 2445.26 419.84C2445.23 423.187 2445.23 425.372 2445.23 427.557C2445.65 427.72 2446.08 427.882 2446.51 428.045C2448.68 425.376 2450.86 422.706 2453.04 420.037C2454.73 418.662 2456.32 417.186 2458.11 415.932C2462.08 413.152 2465.68 414.249 2466.25 418.728C2466.61 421.603 2466.16 424.693 2465.38 427.532C2463.09 435.905 2457.99 443.062 2452.08 450.788C2445.41 457.647 2439.38 463.887 2428.99 463.37Z" fill="#6f794b" fill-rule="nonzero" opacity="1" stroke="none" vectornator:layerName="path"/>
<path d="M2599.36 633.037C2606.17 627.97 2612.93 622.845 2619.82 617.873C2621.65 616.549 2623.9 615.694 2626.07 614.566C2627.71 617.739 2625.33 618.371 2623.96 619.458C2618.09 624.108 2612.2 628.746 2606.06 633.795C2596.98 640.652 2591.37 649.25 2586.53 658.274C2585.53 660.155 2586 662.682 2585.9 665.96C2586.27 668.864 2586.52 670.719 2586.76 672.574C2585.61 672.827 2584.45 673.079 2582.96 672.554C2582.06 667.883 2581.49 663.992 2580.92 660.1C2582.41 650.237 2577.66 642.224 2571 633.886C2567.85 630.04 2565.45 626.83 2562.86 623.748C2560.27 620.666 2557.34 617.809 2554.83 614.675C2552.51 611.769 2548.62 609.68 2548.69 605.277C2550.78 606.089 2552.56 607.173 2553.9 608.588C2559.5 614.462 2564.86 620.513 2570.53 626.329C2572.37 628.22 2574.87 629.593 2576.83 631.778C2577.78 633.931 2578.96 635.507 2580.58 637.677C2581.22 635.983 2581.62 635.357 2581.69 634.704C2582.92 621.971 2584.23 609.243 2585.26 596.497C2585.9 588.568 2584.12 581.001 2579.3 574.254C2575.74 569.281 2571.84 564.51 2568.1 559.649C2567.2 558.327 2566.31 557.005 2564.91 554.866C2562.91 550.773 2561.41 547.497 2560.69 544.212C2561.98 544.169 2562.5 544.136 2563.38 544.448C2566.43 549.042 2567.57 554.273 2573.19 557.307C2577.22 563.605 2581.07 569.394 2585.84 576.564C2586.43 573.364 2586.84 571.896 2586.94 570.411C2587.61 560.609 2588 550.789 2588.89 541.005C2589.47 534.714 2590.73 528.475 2591.69 522.214C2594.48 523.302 2593.83 525.481 2593.69 527.471C2593.15 535.151 2592.57 542.829 2591.9 551.43C2591.74 555.82 2591.69 559.288 2591.5 563.38C2591.02 570.501 2590.67 577 2590.33 583.499C2590.61 583.558 2590.9 583.617 2591.18 583.676C2594.85 577.591 2598.51 571.507 2602.59 565.1C2609.56 556.811 2617.77 550.469 2626.97 545.154C2629.07 543.936 2631.29 542.054 2635.48 544.182C2632.64 545.954 2630.44 547.255 2628.33 548.656C2621.04 553.482 2613.32 557.903 2608.97 565.495C2603.06 569.407 2599.82 575.044 2596.5 581.725C2593.96 586.658 2591.75 590.707 2589.69 594.82C2589.19 595.826 2589.09 597.033 2588.99 598.162C2588.56 602.722 2588.21 607.288 2587.66 612.387C2587.82 613.91 2588.14 614.898 2588.46 615.886C2588.46 615.886 2588.57 615.928 2588.02 615.944C2587.38 616.92 2587.29 617.879 2587.2 618.838C2587.02 621.913 2586.85 624.987 2586.32 629.057C2586.4 636.636 2584.42 643.28 2586.09 650.654C2590.91 644.262 2595.13 638.649 2599.36 633.037Z" fill="#49473c" fill-rule="nonzero" opacity="1" stroke="none" vectornator:layerName="path"/>
<path d="M2368.65 435.856C2365.33 439.14 2368.66 441.127 2370.09 443.788C2364.01 448.351 2356.95 448.287 2349.95 446.812C2344.33 445.625 2338.79 443.845 2333.5 441.727C2331.56 440.947 2329.25 438.405 2329.32 436.743C2329.39 435.168 2332.24 433.578 2334.08 432.221C2335 431.54 2336.38 431.363 2338.75 430.544C2335.74 428.113 2333.24 426.129 2330.79 424.112C2327.05 421.047 2322.73 418.372 2319.74 414.796C2313.37 407.18 2317.51 399.128 2328.09 397.816C2336.46 396.776 2343.56 399.358 2349.63 404.47C2357.46 411.069 2361.97 419.463 2365.38 428.451C2366.27 430.803 2367.41 433.08 2368.65 435.856Z" fill="#6f794b" fill-rule="nonzero" opacity="1" stroke="none" vectornator:layerName="path"/>
<path d="M2932.19 475.166C2926.6 470.692 2926.8 465.056 2928.56 459.281C2930.45 453.066 2934.65 448.097 2940.34 444.395C2944.85 441.457 2949.7 438.845 2954.7 436.643C2964.02 432.541 2973.55 428.842 2983.6 424.727C2985.7 428.269 2984.91 432.557 2984.05 436.674C2980.44 454.01 2958.64 472.801 2937.93 475.473C2935.25 475.258 2933.72 475.212 2932.19 475.166Z" fill="#707a49" fill-rule="nonzero" opacity="1" stroke="none" vectornator:layerName="path"/>
<path d="M2577.06 631.203C2574.87 629.593 2572.37 628.22 2570.53 626.329C2564.86 620.513 2559.5 614.462 2553.9 608.588C2552.56 607.173 2550.78 606.089 2548.69 605.277C2548.62 609.68 2552.51 611.769 2554.83 614.675C2557.34 617.809 2560.27 620.666 2562.86 623.748C2565.45 626.83 2567.85 630.04 2570.55 633.564C2569.8 634.072 2568.75 634.511 2567.89 634.306C2544.58 628.772 2520.32 604.757 2515.86 582.521C2519.64 580.994 2523.65 581.447 2527.52 582.017C2539.32 583.754 2549.72 588.177 2558.27 595.872C2560.42 597.81 2562.51 599.799 2565.28 602.416C2570.12 609.82 2574.48 616.498 2578.44 623.362C2579.95 625.983 2580.89 629.083 2577.06 631.203Z" fill="#e59e42" fill-rule="nonzero" opacity="1" stroke="none" vectornator:layerName="path"/>
<path d="M2591.65 562.757C2591.69 559.288 2591.74 555.82 2591.89 552.128C2594.01 549.867 2596.03 547.822 2598.07 545.791C2606.15 537.728 2616.37 533.618 2628.25 533.169C2637.29 532.827 2646.37 533.101 2655.42 533.101C2654.97 552.823 2633.62 568.127 2609.7 565.791C2613.32 557.903 2621.04 553.482 2628.33 548.656C2630.44 547.255 2632.64 545.954 2635.48 544.182C2631.29 542.054 2629.07 543.936 2626.97 545.154C2617.77 550.469 2609.56 556.811 2602 564.962C2597.88 564.351 2594.77 563.554 2591.65 562.757Z" fill="#e59e42" fill-rule="nonzero" opacity="1" stroke="none" vectornator:layerName="path"/>
<path d="M2457.97 626.932C2456.92 623.308 2458.44 619.144 2453.64 615.609C2453.19 612.535 2453.35 610.196 2453.51 607.857C2454.22 601.254 2454.25 594.511 2455.88 588.097C2456.96 583.836 2459.56 579.432 2462.82 576.183C2468.09 570.923 2474.97 572.759 2476.11 579.749C2476.89 584.577 2475.68 589.705 2475.08 594.671C2474.73 597.542 2473.84 600.359 2472.83 604.803C2477.03 602.655 2479.53 601.254 2482.15 600.069C2484.65 598.939 2487.8 597.453 2489.7 600.027C2490.8 601.523 2490.69 604.662 2489.68 606.364C2483.01 617.642 2473.51 625.691 2457.97 626.932Z" fill="#6f794b" fill-rule="nonzero" opacity="1" stroke="none" vectornator:layerName="path"/>
<path d="M2335.15 538.782C2332.33 545.314 2331.94 546.003 2324.89 545.383C2317.89 544.769 2310.97 543.255 2304.12 541.765C2301.76 541.253 2299.46 539.882 2297.55 538.453C2294.1 535.872 2294.32 532.866 2298 530.529C2299.83 529.368 2301.96 528.598 2305.09 527.115C2302.46 525.082 2300.34 523.388 2298.16 521.765C2295.43 519.733 2292.37 517.997 2289.95 515.7C2286.98 512.873 2287.34 509.783 2290.69 507.363C2294.45 504.656 2298.98 503.297 2303.5 505.069C2308.08 506.86 2313.05 508.81 2316.43 511.939C2323.1 518.12 2328.8 525.163 2335 532.898C2335.11 535.558 2335.13 537.17 2335.15 538.782Z" fill="#6f794b" fill-rule="nonzero" opacity="1" stroke="none" vectornator:layerName="path"/>
<path d="M2932.02 475.731C2933.72 475.212 2935.25 475.258 2937.36 475.385C2936.46 483.238 2934.98 491.011 2933.31 499.914C2930.56 520.249 2930.06 539.493 2931 558.764C2931.51 558.995 2932.02 559.226 2932.53 559.457C2938.58 553.52 2944.63 547.583 2950.69 541.646C2958.1 535.287 2965.52 528.928 2973.39 522.324C2975.16 522.525 2976.47 522.97 2977.93 523.804C2962.39 539.34 2946.71 554.488 2930.68 569.977C2927.91 567.016 2925.51 563.715 2923.71 559.702C2924.47 556.726 2924.7 554.462 2924.76 552.195C2924.98 542.82 2924.84 533.426 2925.48 524.075C2925.74 520.203 2925.07 517.112 2922.8 513.811C2913.58 500.428 2904.67 486.874 2895.64 473.382C2896.26 472.628 2896.89 471.875 2897.93 471.059C2904.16 478.872 2909.97 486.746 2916.32 495.369C2919.84 499.832 2921.74 504.264 2926.18 508.012C2927.2 500.643 2928.1 494.101 2929 487.558C2929.95 483.804 2930.9 480.05 2932.02 475.731Z" fill="#5a5f5e" fill-rule="nonzero" opacity="1" stroke="none" vectornator:layerName="path"/>
<path d="M2457.91 508.117C2456.48 507.221 2455.76 506.387 2454.56 505.463C2459.13 493.286 2466.84 482.926 2478.35 475.099C2480.76 473.462 2483.42 471.828 2486.25 471.109C2488.39 470.566 2491.57 470.822 2493.17 471.981C2494.28 472.783 2494.06 475.906 2493.4 477.673C2492.52 480.002 2490.66 482.035 2489.17 484.165C2488.26 485.472 2487.25 486.723 2485.42 489.138C2488.68 489.138 2490.79 489.039 2492.89 489.162C2495.66 489.325 2498.54 489.3 2501.15 490.006C2505.46 491.167 2506.35 494.43 2503.32 497.393C2501.97 498.71 2500.24 499.876 2498.43 500.61C2485.79 505.746 2472.73 509.288 2457.91 508.117Z" fill="#6f794b" fill-rule="nonzero" opacity="1" stroke="none" vectornator:layerName="path"/>
<path d="M2358.2 526.029C2365.24 522.889 2369.35 523.734 2373.9 529.491C2381.51 539.099 2384.89 549.956 2384.53 561.753C2384.47 563.807 2384.2 565.856 2383.36 568.583C2382.07 570.408 2381.6 571.658 2380.79 572.682C2379.71 574.035 2378.36 575.21 2376.68 576.175C2374.15 572.602 2371.87 569.605 2366.34 570.399C2361.38 564.671 2356.78 559.116 2352.61 553.308C2351.67 552.001 2352.23 549.811 2352.1 548.028C2355.21 549.239 2358.32 550.449 2363.25 552.366C2361.48 547.663 2360.22 544.644 2359.2 541.562C2357.57 536.639 2355.08 531.737 2358.2 526.029Z" fill="#6f794b" fill-rule="nonzero" opacity="1" stroke="none" vectornator:layerName="path"/>
<path d="M2379.87 641.937C2381.37 648.38 2382.62 654.402 2383.28 661.09C2382.15 663.547 2381.6 665.337 2381.06 667.128C2378.58 667.261 2375.97 667.916 2373.64 667.433C2365.27 665.688 2358.14 661.758 2352.16 656.19C2350.94 655.051 2349.87 653.69 2349.09 652.268C2346.1 646.783 2348.83 643.183 2355.54 643.694C2356.68 643.782 2357.81 644.109 2359.36 644.406C2358.64 640.04 2357.76 636.254 2357.43 632.43C2356.9 626.139 2359.17 621.801 2363.14 620.704C2366.72 619.714 2370.32 621.983 2373.65 628.113C2375.99 632.424 2377.65 637.038 2379.87 641.937Z" fill="#6f794b" fill-rule="nonzero" opacity="1" stroke="none" vectornator:layerName="path"/>
<path d="M1886.12 570.192C1891.1 570.39 1896.08 570.589 1901.87 571.293C1904.7 574.293 1906.72 576.787 1908.75 579.281C1912.93 584.999 1917.26 590.637 1921.29 596.449C1933.39 613.94 1945.38 631.493 1957.38 649.039C1958.31 650.399 1959 651.897 1959.81 653.325C1960.86 655.179 1960.89 656.968 1958.79 658.147C1956.48 659.442 1954.38 658.833 1952.84 656.879C1951.95 655.764 1951.26 654.527 1950.45 653.365C1940.69 639.413 1931.01 625.42 1921.09 611.56C1919.37 609.161 1916.69 607.331 1913.9 605.422C1913.35 605.607 1913.45 605.652 1913.89 605.192C1912.99 602.328 1912.02 599.654 1910.23 597.563C1902.32 588.348 1894.17 579.3 1886.12 570.192Z" fill="#e7a248" fill-rule="nonzero" opacity="1" stroke="none" vectornator:layerName="path"/>
<path d="M1913.45 605.652C1913.45 605.652 1913.35 605.607 1913.29 605.588C1914.18 607.818 1912.64 608.43 1910.68 608.586C1899.95 609.439 1889.21 610.941 1878.48 610.848C1870.25 610.777 1862.18 608.307 1855.64 603.161C1853.18 601.221 1850.79 599.208 1848.36 596.478C1848.73 594.884 1849.09 594.041 1849.87 592.847C1858.78 587.816 1868.07 586.909 1877.51 588.635C1887.8 590.517 1897.35 594.191 1905.52 600.434C1908.01 602.337 1910.8 603.922 1913.45 605.652M1887.61 599.917C1889.08 600.032 1890.55 600.147 1892.01 600.262C1892.1 599.746 1892.19 599.231 1892.27 598.716C1885.47 596.241 1879.02 592.798 1871.02 592.517C1871.15 593.579 1871.11 593.968 1871.22 594.009C1876.31 595.884 1881.4 597.729 1887.61 599.917Z" fill="#343a3a" fill-rule="nonzero" opacity="1" stroke="none" vectornator:layerName="path"/>
<path d="M2444.01 485.949C2442.56 485.152 2441.66 484.273 2440.42 482.627C2441.17 471.34 2445.23 462.142 2454.61 455.332C2458.61 452.894 2462.5 450.311 2466.62 448.055C2471.6 445.326 2475.68 445.289 2478.6 447.793C2482.22 450.897 2482.12 454.667 2480.59 458.614C2477.06 467.723 2470.12 474.337 2461.17 479.102C2455.97 481.87 2450.12 483.645 2444.01 485.949Z" fill="#6f794b" fill-rule="nonzero" opacity="1" stroke="none" vectornator:layerName="path"/>
<path d="M1827.05 502.334C1826.89 508.792 1826.66 514.587 1826.44 520.992C1824.6 519.919 1822.44 518.431 1820.96 516.512C1817.35 511.826 1814.43 506.685 1810.55 502.2C1805.64 496.504 1803.26 490.031 1802.62 483.129C1801.61 472.316 1798.47 462.411 1789.83 454.062C1801.2 454.329 1814.71 464.769 1822.04 479.171C1822.44 480.446 1822.85 480.608 1823.42 480.451C1826.53 487.26 1827.04 494.426 1827.05 502.334M1818.96 492.621C1819.42 494.439 1819.88 496.258 1820.35 498.076C1820.88 497.919 1821.41 497.762 1821.94 497.605C1820.53 495.75 1823.6 492.385 1818.91 490.56C1821.03 482.552 1817.84 474.02 1810.62 469.703C1810.71 471.056 1810.55 472.076 1810.88 472.945C1812.58 477.449 1814.34 481.935 1816.22 486.38C1816.97 488.16 1818.08 489.818 1818.96 492.621Z" fill="#343a3a" fill-rule="nonzero" opacity="1" stroke="none" vectornator:layerName="path"/>
<path d="M1703.8 719.29C1701.97 710.94 1697.75 704.039 1689.23 699.25C1689.86 698.403 1690.5 698.049 1691.15 697.694C1691.52 697.767 1691.9 697.841 1693.18 698.392C1696.54 700.688 1698.98 702.508 1701.45 704.357C1704.78 699.875 1704.54 693.575 1701.06 684.95C1700.94 684.093 1700.82 683.236 1700.9 681.678C1701.24 680.793 1701.4 680.609 1701.88 680.087C1702.19 678.249 1702.17 676.749 1702.16 675.248C1701.72 669.362 1701.28 663.475 1700.82 657.18C1696.38 656.153 1692.05 654.769 1692.63 649.233C1699.56 651.738 1705.22 651.033 1710.2 646.437C1709.54 648.922 1708.87 651.407 1707.22 654.179C1704.23 654.674 1703.87 655.781 1704.33 657.339C1704.84 663.37 1705.35 669.4 1705.9 676.552C1705.94 679.575 1705.94 681.478 1705.94 683.38C1706.35 683.424 1706.77 683.467 1707.18 683.511C1707.77 682.153 1708.36 680.795 1709.22 679.073C1709.52 678.416 1709.55 678.125 1709.76 677.725C1709.94 677.618 1710.06 677.239 1710.06 677.239C1713.38 673.367 1716.69 669.494 1720.57 665.846C1721.3 666.772 1721.45 667.473 1721.6 668.174C1717.67 674.086 1713.75 679.998 1709.47 686.81C1705.84 695.342 1707.82 702.967 1708.47 711.962C1714.22 706.196 1718.28 701.494 1715.62 694.528C1715.13 693.241 1715.07 691.822 1714.8 690.464C1715.6 689.006 1716.39 687.549 1717.5 685.507C1722.71 689.34 1720.87 693.719 1721.22 698.657C1721.55 700.322 1721.98 700.881 1722.42 701.439C1722.93 700.807 1723.44 700.175 1723.94 699.544C1727.72 698.314 1731.49 697.085 1735.81 695.916C1736.36 695.977 1736.31 695.932 1736.31 695.932C1731.51 699.175 1727.16 703.331 1721.82 705.467C1711.41 709.63 1709.27 717.454 1708.86 726.153C1708.55 732.777 1709.29 739.439 1709.43 746.086C1709.46 747.709 1708.98 749.341 1707.74 750.946C1705.26 743.178 1706.38 735.206 1705.17 726.357C1704.63 723.287 1704.22 721.288 1703.8 719.29M1703.37 709.131C1703.57 708.156 1703.8 707.183 1703.93 706.2C1703.94 706.131 1703.23 705.984 1702.85 705.873C1702.79 706.676 1702.74 707.48 1703.37 709.131Z" fill="#81855a" fill-rule="nonzero" opacity="1" stroke="none" vectornator:layerName="path"/>
<path d="M2373.06 505.162C2371.04 505.02 2369 504.325 2366.43 503.497C2359.65 499.906 2353.16 496.747 2347.22 492.903C2341.4 489.138 2336.78 484.183 2334.2 477.993C2331.72 472.005 2332.83 467.121 2336.92 464.978C2341.01 462.841 2346.9 463.9 2351.07 468.658C2354.46 472.527 2357.34 477.036 2359.15 481.674C2360.59 485.352 2362.63 487.985 2365.83 490.415C2368.25 492.246 2369.96 494.844 2371.96 497.573C2372.31 500.233 2372.67 502.421 2373.06 505.162Z" fill="#6f794b" fill-rule="nonzero" opacity="1" stroke="none" vectornator:layerName="path"/>
<path d="M2442.08 639.76C2438.45 644.308 2434.94 648.952 2431.1 653.356C2429.64 655.04 2427.4 656.178 2424.73 657.023C2418.22 646.352 2416.07 635.732 2418.52 624.475C2420.69 620.577 2422.86 616.679 2425.77 612.298C2432.97 611.396 2435.8 613.211 2437.06 619.513C2438.04 624.409 2438.19 629.439 2438.86 634.391C2439.15 636.49 2438.57 639.175 2442.08 639.76Z" fill="#6f794b" fill-rule="nonzero" opacity="1" stroke="none" vectornator:layerName="path"/>
<path d="M2216.54 752.401C2223.14 727.541 2230.31 702.783 2237.42 678.013C2238.18 675.364 2238.67 672.65 2239.34 669.425C2239.89 668.395 2240.39 667.906 2241.23 667.339C2246.01 670.144 2247.34 674.191 2246.4 678.795C2244.84 686.446 2243.79 694.287 2241.1 701.624C2235.6 716.632 2229.27 731.395 2223.01 746.168C2221.94 748.695 2221.51 752.293 2216.54 752.401Z" fill="#e59e42" fill-rule="nonzero" opacity="1" stroke="none" vectornator:layerName="path"/>
<path d="M2284.65 736.35C2283.34 739.003 2282.03 741.655 2280.14 745.481C2280.14 742.793 2280.14 741.274 2280.11 739.249C2280.31 733.232 2276.54 730 2272.03 727.193C2267.85 724.592 2263.29 722.375 2259.61 719.295C2256.95 717.073 2254.79 713.919 2253.6 710.808C2252.07 706.781 2254.54 704.637 2259.24 705.25C2264.27 705.905 2268.49 708.177 2271.19 711.971C2273.91 715.798 2275.9 720.049 2278.52 725.022C2279.53 726.92 2280.24 727.911 2281.52 729.717C2281.91 727.481 2282.13 726.257 2282.34 725.034C2283.48 721.32 2284.34 717.507 2285.86 713.926C2286.92 711.44 2288.51 708.906 2290.61 707.102C2291.91 705.987 2294.87 705.513 2296.59 706.049C2297.82 706.435 2299.05 709.055 2298.85 710.513C2298.48 713.139 2297.35 715.791 2295.97 718.166C2293.08 723.153 2289.82 727.967 2287.29 733.18C2287.87 733.508 2287.75 733.448 2287.29 732.96C2284.7 733.119 2284.03 734.438 2284.65 736.35Z" fill="#757c4e" fill-rule="nonzero" opacity="1" stroke="none" vectornator:layerName="path"/>
<path d="M2569.55 539.778C2571.25 545.42 2572.59 550.732 2573.47 556.42C2567.57 554.273 2566.43 549.042 2563.29 544.03C2561.98 542.831 2561.1 542.395 2560.23 541.959C2560.12 542.713 2560.02 543.467 2559.91 544.222C2561.41 547.497 2562.91 550.773 2564.64 554.553C2561.87 553.56 2558.26 552.594 2555.96 550.473C2546.01 541.326 2541.25 530.068 2540.41 517.329C2550.15 516.32 2560.65 524.518 2569.55 539.778Z" fill="#e7a044" fill-rule="nonzero" opacity="1" stroke="none" vectornator:layerName="path"/>
<path d="M1822.89 535.273C1823.34 541.838 1823.26 548.239 1822.48 554.556C1821.37 554.185 1820.97 553.897 1820.57 553.61C1820.57 553.61 1820.64 553.719 1820.51 553.207C1817.45 549.87 1814.73 546.831 1811.54 544.266C1804.47 538.582 1798.03 532.561 1794.68 524.311C1794.18 523.072 1792.77 522.131 1791.43 520.665C1790.74 522.289 1790.39 523.135 1790.03 523.981C1787.01 517.22 1788.26 510.425 1790.34 503.243C1791.52 504.55 1792.74 505.837 1793.89 507.168C1796.99 510.751 1799.85 514.519 1803.19 517.91C1808.37 523.169 1813.83 528.201 1819.24 533.266C1820.08 534.052 1821.31 534.503 1822.89 535.273Z" fill="#e7a044" fill-rule="nonzero" opacity="1" stroke="none" vectornator:layerName="path"/>
<path d="M1399.8 693.705C1402.36 695.013 1404.89 696.483 1407.03 698.328C1430.7 718.776 1457.04 735.601 1487.58 746.642C1493.57 748.807 1499.9 751.435 1506.94 747.382C1508.56 751.091 1505.13 751.91 1502.37 752.291C1499.46 752.693 1496.21 752.528 1493.39 751.755C1487.12 750.032 1480.82 748.167 1474.89 745.669C1451.29 735.728 1430.1 722.432 1410.98 706.53C1406.63 702.913 1403.36 698.232 1399.8 693.705Z" fill="#49473c" fill-rule="nonzero" opacity="1" stroke="none" vectornator:layerName="path"/>
<path d="M2622.06 486.52C2626.42 492.766 2626 498.711 2622.9 504.637C2621.28 507.731 2619.55 510.823 2617.4 513.624C2616.42 514.901 2613.85 516.508 2612.82 516.13C2611.08 515.491 2609.77 513.515 2608.73 511.866C2608.19 511 2608.82 509.598 2608.58 508.501C2608.06 506.148 2607.71 503.664 2606.59 501.54C2603.57 495.835 2603.92 490.829 2608.19 486.197C2612.85 481.13 2616.38 481.095 2622.06 486.52M2615.68 492.364C2613.96 494.429 2614.16 496.326 2616.41 498.861C2617.86 496.106 2621.08 494.245 2615.68 492.364Z" fill="#e7a248" fill-rule="nonzero" opacity="1" stroke="none" vectornator:layerName="path"/>
<path d="M1880.3 551.497C1876.61 551.459 1872.77 550.966 1868.27 549.753C1866.29 548.443 1864.97 547.854 1863.65 547.265C1857.66 542.21 1851.72 537.096 1845.63 532.132C1843.4 530.315 1840.82 528.851 1838 526.913C1842.28 522.156 1848.83 523.766 1855.11 523.019C1856.62 524.305 1857.48 524.941 1858.33 525.577C1865.6 534.066 1872.87 542.554 1880.3 551.497Z" fill="#e7a248" fill-rule="nonzero" opacity="1" stroke="none" vectornator:layerName="path"/>
<path d="M1985.32 705.61C1984.14 707.605 1982.88 709.56 1981.82 711.603C1979.68 715.733 1978.88 716.551 1973.73 719.178C1970.55 718.831 1969.63 714.091 1964.9 715.558C1962.68 712.983 1961.01 710.475 1959.82 707.502C1961.39 707.288 1962.48 707.537 1963.58 707.786C1964.11 707.246 1964.65 706.707 1965.18 706.167C1964.06 705.851 1962.95 705.534 1961.83 705.218C1960.9 703.837 1959.98 702.456 1959.74 700.624C1960.17 699.411 1959.92 698.647 1959.66 697.884C1961.1 696.39 1962.53 694.896 1964.7 692.639C1966.74 694.657 1969.32 697.198 1972.52 700.397C1973.72 700.743 1974.29 700.433 1974.86 700.122C1976.68 698.638 1978.49 697.154 1980.69 695.362C1981.5 697.714 1985.88 697.03 1985.3 701.509C1985.23 703.541 1985.27 704.576 1985.32 705.61M1964.51 697.315C1964.6 697.051 1964.68 696.786 1964.76 696.522C1964.49 696.617 1964.21 696.713 1964.51 697.315Z" fill="#81855a" fill-rule="nonzero" opacity="1" stroke="none" vectornator:layerName="path"/>
<path d="M2038.54 694.137C2038.88 695.66 2038.68 697.499 2037.94 699.81C2033.35 696.862 2029.29 693.443 2025.23 690.025C2023.36 687.097 2021.48 684.17 2019.13 680.509C2015.61 682.301 2012.25 684.004 2008.77 685.772C2005.59 683.558 2006.72 681.408 2009.03 678.674C2011.11 677.429 2012.47 676.742 2014.53 675.699C2012.54 674.582 2011.19 673.829 2009.84 673.075C2007.83 672.531 2005.81 671.986 2003.61 671.391C2003.84 667.272 2006.55 666.939 2010.55 667.486C2013.2 668.956 2015.33 671.414 2015.73 667.001C2019.78 663.337 2021.86 663.598 2023.3 668.051C2023.65 669.107 2023.49 670.296 2023.54 672.495C2023.27 676.153 2024.11 677.652 2027.24 676.268C2028.29 675.806 2029.04 674.797 2029.93 674.039C2036.27 674.183 2036.69 674.916 2032.42 680.344C2029.52 680.307 2027.53 679.875 2024.85 679.295C2026.31 683.797 2027.79 687.404 2031.85 689.622C2031.85 689.622 2031.94 689.73 2032.06 690.202C2033.36 691.697 2034.54 692.72 2035.72 693.744C2036.48 693.98 2037.24 694.217 2038.54 694.137M2018.29 670.421C2017.41 672.032 2016.53 673.644 2015.05 676.348C2019.96 674.978 2020.38 673.056 2018.29 670.421Z" fill="#81855a" fill-rule="nonzero" opacity="1" stroke="none" vectornator:layerName="path"/>
<path d="M2106 760.864C2109.29 760.896 2112.59 760.791 2115.86 760.997C2119.41 761.22 2122.18 762.813 2123.43 765.913C2124.78 769.279 2122.61 771.672 2120.05 773.664C2115.66 777.078 2110.46 778.68 2104.66 778.575C2100.86 778.507 2097.5 777.26 2095.87 774.097C2094.07 770.618 2095.34 767.389 2098.35 764.752C2099.07 764.117 2099.89 763.568 2101.52 762.568C2103.58 761.727 2104.79 761.295 2106 760.864Z" fill="#e7a044" fill-rule="nonzero" opacity="1" stroke="none" vectornator:layerName="path"/>
<path d="M2354.89 702.392C2354 704.968 2353.09 706.96 2351.6 710.238C2350.66 707.629 2350.14 706.178 2349.47 704.189C2349.33 703.65 2349.72 703.086 2350.03 702.635C2350.35 700.868 2350.43 699.548 2350.34 698.239C2350.14 695.477 2348.35 695.017 2345.78 695.8C2340.21 695.21 2334.1 695.911 2329.86 690.68C2334.2 686.498 2339.33 689.889 2344.14 688.822C2343.68 684.433 2335.74 682.102 2340.13 675.704C2342.83 678.155 2345.14 680.258 2347.73 682.617C2351.31 677.029 2349.34 669.609 2356.34 666.029C2359.66 672.624 2357.85 678.261 2350.76 685.411C2352.22 691.223 2353.55 696.515 2354.89 702.392Z" fill="#81855a" fill-rule="nonzero" opacity="1" stroke="none" vectornator:layerName="path"/>
<path d="M2351.92 547.598C2352.23 549.811 2351.67 552.001 2352.61 553.308C2356.78 559.116 2361.38 564.671 2366.35 570.898C2368.35 573.838 2369.46 576.479 2371.37 578.502C2377.11 584.568 2383.16 590.393 2389.09 596.313C2388.47 596.999 2387.85 597.685 2387.14 598.825C2382.14 595.062 2376.5 591.342 2372.47 586.519C2365 577.592 2358.36 568.095 2351.65 558.677C2349.23 555.276 2348.03 551.133 2345.47 547.847C2342.89 544.549 2339.3 541.896 2335.66 538.871C2335.13 537.17 2335.11 535.558 2335.14 533.343C2340.71 537.548 2346.22 542.358 2351.92 547.598Z" fill="#484f46" fill-rule="nonzero" opacity="1" stroke="none" vectornator:layerName="path"/>
<path d="M2836.56 583.621C2841.36 592.429 2845.6 601.394 2849.81 610.843C2835.78 609.523 2822.21 596.383 2825.07 581.796C2828.72 582.458 2832.36 583.118 2836.56 583.621Z" fill="#e59e42" fill-rule="nonzero" opacity="1" stroke="none" vectornator:layerName="path"/>
<path d="M2631.09 770.159C2624.58 765.51 2624.16 762.095 2629.23 757.598C2633.42 753.888 2638.42 751.781 2644.42 752.945C2648.25 753.689 2651.85 755.186 2652.66 759.142C2653.45 763.007 2651.06 765.67 2647.7 767.728C2642.79 770.739 2637.38 771.278 2631.09 770.159Z" fill="#e7a044" fill-rule="nonzero" opacity="1" stroke="none" vectornator:layerName="path"/>
<path d="M2083.89 588.455C2074.59 583.661 2068.14 576.887 2063.4 568.887C2057.76 559.373 2052.56 549.644 2047.28 539.96C2046.46 538.454 2046.22 536.69 2045.7 535.007C2049.81 534.041 2050.04 536.631 2050.96 538.324C2055.31 546.379 2059.32 554.593 2063.99 562.494C2066.97 567.534 2070.41 572.479 2074.5 576.807C2077.71 580.203 2081.85 583.33 2086.29 585.18C2089.66 586.583 2091.74 587.941 2092.75 591.077C2094.16 595.456 2095.87 599.758 2097.36 604.606C2097.27 605.118 2097.21 605.057 2097.24 605.066C2092.18 602.608 2092.38 597.519 2090.31 593.564C2089.06 591.18 2088.69 588.032 2083.89 588.455Z" fill="#584933" fill-rule="nonzero" opacity="1" stroke="none" vectornator:layerName="path"/>
<path d="M1690.76 697.414C1690.5 698.049 1689.86 698.403 1688.88 698.903C1684.01 698.52 1679.71 698.025 1675.43 700.739C1673.43 702.012 1669.96 702.235 1667.4 701.781C1661.8 700.789 1656.35 699.061 1650.27 697.484C1654.51 692.16 1659.61 689.414 1665.6 688.052C1669.71 687.118 1674.47 687.376 1677 690.247C1680.64 694.382 1685.51 695.52 1690.76 697.414Z" fill="#757c4e" fill-rule="nonzero" opacity="1" stroke="none" vectornator:layerName="path"/>
<path d="M1931.32 727.18C1930.76 728.46 1929.7 729.395 1928.28 730.431C1926.59 727.149 1925.27 723.764 1923.82 720.067C1919.14 722.406 1915.03 724.457 1910.75 726.594C1908.97 720.13 1910.97 718.18 1920.73 715.958C1919.99 711.586 1912.66 708.586 1917.47 701.703C1920.27 705.46 1922.42 708.338 1924.87 711.619C1926.53 708.005 1927.91 705.007 1929.5 701.544C1934.16 707.309 1933.73 709.553 1927.07 716.213C1928.23 719.494 1929.53 723.165 1931.32 727.18Z" fill="#757c4e" fill-rule="nonzero" opacity="1" stroke="none" vectornator:layerName="path"/>
<path d="M2440.16 727.263C2438.92 728.735 2437.61 729.657 2436.33 730.617C2435.26 731.427 2434.22 732.281 2431.91 734.105C2432.81 729.046 2432.95 725.249 2427.03 724.652C2426.7 723.755 2426.55 723.109 2425.7 721.252C2424.61 719.657 2424.22 719.273 2423.83 718.889C2423.14 717.189 2422.22 715.53 2421.84 713.775C2421.53 712.368 2421.87 710.845 2421.92 709.373C2423.77 709.576 2425.81 709.419 2427.43 710.087C2428.93 710.707 2430.03 712.175 2431.23 713.329C2432.42 714.464 2433.52 715.675 2434.97 717.179C2436.17 715.977 2436.99 714.874 2438.1 714.127C2439.55 713.149 2441.61 711.474 2442.75 711.826C2445.59 712.702 2444.56 715.171 2443.86 717.094C2442.7 720.333 2441.36 723.521 2440.16 727.263M2434.6 717.349C2434.87 717.448 2435.13 717.546 2435.4 717.645C2435.32 717.374 2435.24 717.104 2434.6 717.349Z" fill="#757c4e" fill-rule="nonzero" opacity="1" stroke="none" vectornator:layerName="path"/>
<path d="M1700.84 681.245C1697.08 676.828 1693.56 672.144 1689.81 667.158C1681.7 671.729 1674.96 670.261 1668.73 665.116C1675.61 656.665 1683.55 656.346 1690.46 664.173C1693.45 667.563 1696.14 671.173 1699.41 675.439C1700.42 677.605 1700.99 679.014 1701.55 680.424C1701.4 680.609 1701.24 680.793 1700.84 681.245Z" fill="#81855a" fill-rule="nonzero" opacity="1" stroke="none" vectornator:layerName="path"/>
<path d="M1790.01 524.017C1790.39 523.135 1790.74 522.289 1791.43 520.665C1792.77 522.131 1794.18 523.072 1794.68 524.311C1798.03 532.561 1804.47 538.582 1811.54 544.266C1814.73 546.831 1817.45 549.87 1820.51 553.143C1820.03 553.716 1819.43 553.839 1817.94 554.146C1810.32 548.718 1803.61 543.106 1796.38 536.902C1795.39 535.707 1794.9 535.104 1794.41 534.502C1793.51 532.998 1792.61 531.493 1791.71 529.039C1791.13 526.766 1790.54 525.445 1789.96 524.123C1789.96 524.123 1789.99 524.052 1790.01 524.017Z" fill="#584933" fill-rule="nonzero" opacity="1" stroke="none" vectornator:layerName="path"/>
<path d="M1710.37 645.934C1705.22 651.033 1699.56 651.738 1692.67 648.667C1691.22 645.932 1690.35 643.388 1689.16 639.873C1693.56 639.873 1697.03 640.23 1700.36 639.77C1703.51 639.334 1706.52 638.042 1709.98 637.01C1712.12 639.74 1710.94 642.621 1710.37 645.934Z" fill="#e8a714" fill-rule="nonzero" opacity="1" stroke="none" vectornator:layerName="path"/>
<path d="M1739.28 694.879C1738.8 693.352 1738.03 691.843 1737.91 690.293C1737.62 686.554 1739.58 684.054 1743.23 682.973C1747.05 681.843 1750.16 682.81 1752.65 685.562C1755.06 688.214 1755 690.983 1752.94 693.742C1750.7 696.735 1747.65 697.856 1743.78 696.638C1742.6 696.267 1741.51 695.669 1739.78 694.987C1739.19 694.799 1739.28 694.879 1739.28 694.879Z" fill="#e8a714" fill-rule="nonzero" opacity="1" stroke="none" vectornator:layerName="path"/>
<path d="M1721.99 668.434C1721.45 667.473 1721.3 666.772 1720.99 665.551C1721.47 660.898 1724.24 659.105 1728.71 659.142C1731.46 659.165 1734.22 659.146 1737.26 659.146C1738.15 664.571 1736.05 668.309 1731.8 670.766C1728.29 672.798 1724.98 671.421 1721.99 668.434Z" fill="#e8a714" fill-rule="nonzero" opacity="1" stroke="none" vectornator:layerName="path"/>
<path d="M1486.75 711.593C1480.13 713.349 1473.53 714.665 1467.04 715.96C1467.74 713.27 1467.74 713.27 1482.1 708.837C1476.73 704.009 1469.99 708.564 1464.28 705.391C1468.75 704.769 1473.22 704.147 1477.96 703.488C1476.81 700.147 1474.16 701.279 1472.16 701.171C1469.95 701.051 1467.73 701.143 1464.39 701.143C1468.86 697.419 1473.34 699.239 1478.01 698.62C1479.27 698.996 1480.25 699.385 1480.31 699.859C1480.82 704.414 1483.89 707.731 1486.75 711.593Z" fill="#584933" fill-rule="nonzero" opacity="1" stroke="none" vectornator:layerName="path"/>
<path d="M2950.69 618.341C2949.84 617.909 2949.47 617.257 2949.28 615.785C2950.17 613.598 2950.88 612.23 2951.59 610.863C2953.85 609.137 2956.16 607.445 2958.38 605.678C2962.73 602.232 2966.97 598.68 2971.39 595.325C2972.36 594.593 2973.92 594.501 2976.18 593.821C2974.47 599.567 2969.29 601.124 2966.09 604.255C2962.86 607.428 2959.68 610.643 2956.33 614.232C2954.51 615.79 2952.84 616.956 2950.69 618.341Z" fill="#584933" fill-rule="nonzero" opacity="1" stroke="none" vectornator:layerName="path"/>
<path d="M1636.99 729.049C1638.1 727.514 1639.2 725.979 1640.63 724.04C1641.33 723.76 1641.72 723.896 1642.64 724.434C1643.67 724.942 1644.16 725.059 1644.66 725.176C1644.66 725.176 1644.66 725.049 1644.59 725.443C1644.91 726.189 1645.3 726.541 1645.69 726.893C1647.52 728.085 1649.34 729.276 1651.23 730.896C1647.16 734.698 1643.03 738.071 1638.88 741.451C1635.83 738.695 1638.23 737.949 1640.42 736.36C1642.54 734.32 1643.95 732.863 1645.47 731.292C1643.76 730.312 1642.38 729.527 1641.56 729.057C1639.7 729.82 1638.43 730.344 1637.12 730.412C1637.05 729.654 1637.02 729.352 1636.99 729.049Z" fill="#584933" fill-rule="nonzero" opacity="1" stroke="none" vectornator:layerName="path"/>
<path d="M2737.82 720.762C2737.95 723.369 2739.71 726.376 2735.64 727.957C2733.9 724.646 2732.34 721.308 2731.26 717.846C2730.49 715.376 2730.38 712.739 2730.76 709.964C2735.44 712.397 2734.89 717.213 2737.82 720.762Z" fill="#81855a" fill-rule="nonzero" opacity="1" stroke="none" vectornator:layerName="path"/>
<path d="M2657.5 469.181C2656.73 463.272 2655.96 457.948 2655.21 452.777C2660.78 454.931 2663.12 466.892 2658.38 475.809C2657.96 472.944 2657.73 471.354 2657.5 469.181Z" fill="#e7a248" fill-rule="nonzero" opacity="1" stroke="none" vectornator:layerName="path"/>
<path d="M2571.24 498.06C2572.06 496.131 2572.78 494.701 2573.5 493.272C2573.94 493.423 2574.37 493.574 2574.8 493.725C2574.8 496.328 2574.25 499.062 2574.96 501.496C2575.64 503.847 2577.63 505.888 2579.27 508.401C2575.88 510.142 2573.55 508.405 2572.38 505.857C2571.37 503.648 2571.5 501.009 2571.24 498.06Z" fill="#e7a248" fill-rule="nonzero" opacity="1" stroke="none" vectornator:layerName="path"/>
<path d="M2386.24 668.756C2389.6 673.451 2392.15 677.89 2394.48 683.172C2393.39 684.324 2392.51 684.632 2391.63 684.941C2389.35 680.984 2387.05 677.042 2384.82 673.062C2383.94 671.478 2382.91 669.775 2386.24 668.756Z" fill="#343a3a" fill-rule="nonzero" opacity="1" stroke="none" vectornator:layerName="path"/>
<path d="M1849.44 593.197C1849.09 594.041 1848.73 594.884 1848.2 596.034C1844.31 595.952 1840.6 595.564 1836.26 595.09C1835.61 594.201 1835.58 593.397 1836.23 592.079C1841.08 592.109 1845.26 592.653 1849.44 593.197Z" fill="#484f46" fill-rule="nonzero" opacity="1" stroke="none" vectornator:layerName="path"/>
<path d="M1474.93 695.314C1472.69 696.277 1471.7 695.283 1471.37 693.428C1471.06 691.66 1470.66 689.903 1469.96 687.723C1470.77 685.072 1472.65 684.556 1473.68 686.953C1474.7 689.346 1474.58 692.141 1474.93 695.314Z" fill="#584933" fill-rule="nonzero" opacity="1" stroke="none" vectornator:layerName="path"/>
<path d="M1910.7 748.547C1907.04 751.295 1903.37 754.043 1898.94 757.367C1898.56 753.583 1901.52 752.984 1902.96 751.555C1904.49 750.04 1906.32 748.768 1908.71 747.538C1909.83 747.974 1910.27 748.26 1910.7 748.547Z" fill="#5a5f5e" fill-rule="nonzero" opacity="1" stroke="none" vectornator:layerName="path"/>
<path d="M1780.63 215.862C1785.96 215.144 1791.3 214.426 1796.63 213.708C1796.74 214.134 1796.84 214.559 1796.95 214.985C1792.5 215.888 1788.05 216.791 1783.18 218.15C1782.3 218.644 1781.9 218.529 1781.18 217.803C1780.75 216.85 1780.69 216.356 1780.63 215.862Z" fill="#bebc9e" fill-rule="nonzero" opacity="1" stroke="none" vectornator:layerName="path"/>
<path d="M2391.56 685.287C2392.51 684.632 2393.39 684.324 2394.56 683.656C2396.29 685.827 2397.74 688.357 2398.72 691.417C2397.51 692.453 2396.77 692.959 2396.03 693.465C2394.71 691.323 2393.39 689.182 2391.74 686.685C2391.44 686.098 2391.47 685.865 2391.56 685.287Z" fill="#484f46" fill-rule="nonzero" opacity="1" stroke="none" vectornator:layerName="path"/>
<path d="M1772.84 209.62C1777.24 208.538 1781.82 207.844 1786.41 207.15C1786.55 207.59 1786.68 208.03 1786.82 208.471C1783.32 209.575 1779.83 210.68 1776.2 212.277C1775.06 211.849 1774.03 210.928 1772.84 209.62Z" fill="#81855a" fill-rule="nonzero" opacity="1" stroke="none" vectornator:layerName="path"/>
<path d="M2381.54 667.73C2381.6 665.337 2382.15 663.547 2383.16 661.666C2384.75 663.739 2385.87 665.903 2387.04 668.58C2384.84 671.906 2383.4 670.268 2381.54 667.73Z" fill="#484f46" fill-rule="nonzero" opacity="1" stroke="none" vectornator:layerName="path"/>
<path d="M1785.78 222.79C1788.86 221.41 1792.05 220.438 1795.24 219.467C1795.44 220.009 1795.64 220.55 1795.84 221.092C1792.84 222.089 1789.85 223.086 1786.3 224.057C1785.8 223.754 1785.84 223.477 1785.78 222.79Z" fill="#81855a" fill-rule="nonzero" opacity="1" stroke="none" vectornator:layerName="path"/>
<path d="M1789.9 524.663C1790.54 525.445 1791.13 526.766 1791.57 528.626C1790.89 527.844 1790.36 526.524 1789.9 524.663Z" fill="#e7a044" fill-rule="nonzero" opacity="1" stroke="none" vectornator:layerName="path"/>
<path d="M1719.18 559.643C1719.59 560.027 1719.59 560.467 1719.6 561.238C1719.32 560.945 1719.04 560.323 1719.18 559.643Z" fill="#343a3a" fill-rule="nonzero" opacity="1" stroke="none" vectornator:layerName="path"/>
<path d="M1738.7 694.885C1739.28 694.879 1739.19 694.799 1739.21 694.769C1738.61 695.082 1738 695.426 1736.84 695.851C1736.31 695.932 1736.36 695.977 1736.38 696.005C1736.97 695.652 1737.54 695.272 1738.7 694.885Z" fill="#81855a" fill-rule="nonzero" opacity="1" stroke="none" vectornator:layerName="path"/>
<path d="M1910.9 748.508C1910.27 748.26 1909.83 747.974 1909.19 747.376C1908.98 747.065 1909.27 746.601 1909.55 746.497C1910.08 746.678 1910.34 746.963 1910.96 747.699C1911.32 748.15 1911.1 748.469 1910.9 748.508Z" fill="#303637" fill-rule="nonzero" opacity="1" stroke="none" vectornator:layerName="path"/>
<path d="M1645.76 726.475C1645.3 726.541 1644.91 726.189 1644.52 725.454C1644.96 725.4 1645.4 725.728 1645.76 726.475Z" fill="#e7a044" fill-rule="nonzero" opacity="1" stroke="none" vectornator:layerName="path"/>
<path d="M1644.51 724.793C1644.16 725.059 1643.67 724.942 1642.93 724.538C1643.24 724.303 1643.8 724.357 1644.51 724.793Z" fill="#e7a044" fill-rule="nonzero" opacity="1" stroke="none" vectornator:layerName="path"/>
<path d="M1740.49 415.751C1740.79 416.318 1740.7 416.534 1740.36 417.024C1738.62 416.248 1736.6 415.477 1735.73 414.108C1721.33 391.42 1711.63 367.64 1714.64 340.794C1715.64 331.902 1715.72 322.928 1716.34 313.998C1716.43 312.575 1717.17 311.189 1717.62 309.751C1721.11 310.753 1720.09 312.74 1719.99 314.467C1719.42 324.092 1718.92 333.72 1718.29 343.342C1716.85 365.072 1723.61 385.091 1733.83 404.386C1735.8 408.111 1738.01 411.732 1740.49 415.751Z" fill="#584933" fill-rule="nonzero" opacity="1" stroke="none" vectornator:layerName="path"/>
<path d="M1649.52 309.537C1646.73 298.792 1644.02 288.639 1641.26 278.312C1645.22 277.494 1645.35 280.334 1645.83 281.919C1648.64 291.207 1651.56 300.495 1653.67 309.924C1655.27 317.096 1655.9 324.464 1656.64 331.772C1657.17 337.09 1654.56 341.142 1649.19 343.514C1648.21 343.947 1646.91 343.788 1645.25 343.526C1654.56 338.325 1652.89 330.58 1651.84 323.051C1651.23 318.727 1650.36 314.434 1649.52 309.537Z" fill="#584933" fill-rule="nonzero" opacity="1" stroke="none" vectornator:layerName="path"/>
<path d="M2136.77 617.68C2140.56 616.27 2144.44 615.843 2147.58 614.232C2161.33 607.172 2174.85 599.752 2188.48 592.511C2190.43 591.479 2192.55 590.716 2195.09 589.736C2192.53 606.804 2183.98 621.868 2172.28 635.239C2155.97 653.892 2138.67 671.848 2120.83 690.257C2109.04 686.958 2101.74 679.695 2095.08 671.728C2107.21 656.155 2119.35 640.589 2131.46 625.005C2133.22 622.752 2134.84 620.415 2136.77 617.68Z" fill="#f2b66d" fill-rule="nonzero" opacity="1" stroke="none" vectornator:layerName="path"/>
<path d="M2191.02 692.942C2192.22 703.373 2185.56 710.314 2176.88 716.055C2173.03 718.606 2168.7 720.58 2164.29 723.2C2159.41 716.287 2159.67 715.096 2166.14 710.548C2174.32 704.802 2182.41 698.948 2191.02 692.942Z" fill="#bebc9e" fill-rule="nonzero" opacity="1" stroke="none" vectornator:layerName="path"/>
<path d="M2064.04 712.647C2066 714.519 2067.57 716.511 2069.75 719.281C2070.63 717.286 2071.18 716.016 2071.73 714.757C2074.51 715.266 2077.38 715.412 2079.85 716.388C2081.29 716.954 2082.5 718.728 2083.03 720.19C2083.54 721.595 2083.04 723.298 2083.08 725.355C2083.09 728.945 2080.6 730.245 2077.91 731.046C2075.33 731.815 2072.57 732.093 2068.93 732.764C2068.58 730.37 2068.55 728.396 2067.97 726.564C2067.31 724.486 2066.16 722.535 2064.74 719.614C2063.9 717.178 2063.55 715.656 2063.2 714.135C2063.35 713.679 2063.5 713.223 2064.04 712.647Z" fill="#81855a" fill-rule="nonzero" opacity="1" stroke="none" vectornator:layerName="path"/>
<path d="M2100.07 605.336C2100.1 605.049 2100.33 604.927 2100.96 604.786C2100.99 605.012 2100.63 605.257 2100.07 605.336Z" fill="#584933" fill-rule="nonzero" opacity="1" stroke="none" vectornator:layerName="path"/>
<path d="M1845.86 518.033C1846.35 518.401 1846.35 518.779 1846.34 519.724C1844.73 520.417 1843.12 520.543 1841.52 520.669C1841.43 520.381 1841.34 520.094 1841.25 519.807C1842.62 519.219 1844 518.63 1845.86 518.033Z" fill="#bebc9e" fill-rule="nonzero" opacity="1" stroke="none" vectornator:layerName="path"/>
<path d="M2951.4 688.413C2953.31 692.51 2954.7 696.569 2956.26 701.146C2942.42 705.852 2928.72 711.244 2912.86 712.633C2913.84 708.224 2914.62 704.712 2915.44 700.655C2927.28 696.2 2939.08 692.288 2951.4 688.413Z" fill="#bebc9e" fill-rule="nonzero" opacity="1" stroke="none" vectornator:layerName="path"/>
<path d="M2710.76 246.702C2710.93 243.852 2709.34 241.222 2713.2 238.381C2716.93 255.951 2717.61 273.032 2721.63 291.05C2725.59 287.245 2728.8 284.441 2731.65 281.367C2744.97 267.025 2755.11 250.887 2764.11 234.112C2765.24 232.012 2765.64 229.254 2768.92 228.353C2770.43 240.914 2733.72 290.314 2718.22 296.071C2714.59 279.821 2712.98 263.506 2710.76 246.702Z" fill="#584933" fill-rule="nonzero" opacity="1" stroke="none" vectornator:layerName="path"/>
<path d="M2641.17 289.648C2640.13 272.82 2635.74 256.601 2630.43 240.528C2629.6 238.014 2627.14 235.231 2629.93 232.249C2636.46 238.132 2647.5 283.186 2645.36 295.886C2642.49 295.08 2639.58 294.626 2637.05 293.489C2625.15 288.156 2607.04 271.991 2599.88 260.526C2602.58 258.446 2603.85 260.6 2605.26 262.032C2610.16 266.995 2614.61 272.384 2619.99 276.862C2625.92 281.792 2632.69 285.896 2639.83 290.677C2640.77 290.546 2640.97 290.097 2641.17 289.648Z" fill="#584933" fill-rule="nonzero" opacity="1" stroke="none" vectornator:layerName="path"/>
<path d="M2145.65 581.225C2145.98 583.275 2146.14 584.84 2146.3 586.405C2145.57 586.566 2144.85 586.727 2144.12 586.888C2134.38 566.923 2125.75 546.52 2115.99 526.565C2115.57 525.717 2115.94 524.559 2115.94 523.187C2119.94 523.458 2120.25 526.147 2121.13 528.013C2128.37 543.431 2135.48 558.9 2142.62 574.357C2143.6 576.475 2144.52 578.612 2145.65 581.225Z" fill="#584933" fill-rule="nonzero" opacity="1" stroke="none" vectornator:layerName="path"/>
<path d="M1774.26 622.542C1773.16 622.897 1772.11 622.782 1770.51 622.664C1770.76 621.513 1771.56 620.364 1772.35 619.215C1773 620.167 1773.65 621.12 1774.26 622.542Z" fill="#81855a" fill-rule="nonzero" opacity="1" stroke="none" vectornator:layerName="path"/>
<path d="M1820.66 553.956C1820.97 553.897 1821.37 554.185 1821.87 554.818C1821.57 554.877 1821.16 554.59 1820.66 553.956Z" fill="#584933" fill-rule="nonzero" opacity="1" stroke="none" vectornator:layerName="path"/>
<path d="M2377.13 576.461C2378.36 575.21 2379.71 574.035 2380.79 572.682C2381.6 571.658 2382.07 570.408 2383.25 569.145C2387.18 577.524 2391.3 585.668 2397.6 593.312C2396.89 594.491 2396.04 595.215 2394.52 596.159C2393.58 596.463 2393.31 596.546 2393.04 596.629C2393.04 596.629 2393.13 596.604 2393.16 596.161C2387.83 589.299 2382.48 582.88 2377.13 576.461Z" fill="#484f46" fill-rule="nonzero" opacity="1" stroke="none" vectornator:layerName="path"/>
<path d="M2402.61 705.63C2401.46 704.649 2400.8 703.609 2400.98 701.994C2402.43 701.298 2403.05 701.177 2403.66 701.057C2404.05 701.323 2404.48 701.491 2405.32 701.588C2407.83 704.54 2405.08 704.852 2402.61 705.63Z" fill="#484f46" fill-rule="nonzero" opacity="1" stroke="none" vectornator:layerName="path"/>
<path d="M1798.05 218.745C1798.74 218.744 1799.12 219.029 1799.49 219.315C1798.91 219.22 1798.33 219.126 1798.05 218.745Z" fill="#81855a" fill-rule="nonzero" opacity="1" stroke="none" vectornator:layerName="path"/>
<path d="M1637.15 730.867C1638.43 730.344 1639.7 729.82 1641.56 729.057C1642.38 729.527 1643.76 730.312 1645.47 731.292C1643.95 732.863 1642.54 734.32 1640.7 735.985C1638.63 735.68 1636.98 735.167 1634.86 734.259C1635.31 732.865 1636.23 731.866 1637.15 730.867Z" fill="#e7a248" fill-rule="nonzero" opacity="1" stroke="none" vectornator:layerName="path"/>
<path d="M1637.12 730.412C1636.23 731.866 1635.31 732.865 1634.3 734.267C1631.56 734.568 1630.14 733.719 1632.3 731.469C1633.23 730.505 1634.75 730.005 1636.5 729.171C1637.02 729.352 1637.05 729.654 1637.12 730.412Z" fill="#6d7847" fill-rule="nonzero" opacity="1" stroke="none" vectornator:layerName="path"/>
<path d="M2403.6 700.548C2403.05 701.177 2402.43 701.298 2400.88 701.54C2398.68 699.234 2397.41 696.806 2396.09 693.921C2396.77 692.959 2397.51 692.453 2398.74 691.898C2400.66 694.579 2402.1 697.309 2403.6 700.548Z" fill="#343a3a" fill-rule="nonzero" opacity="1" stroke="none" vectornator:layerName="path"/>
<path d="M2560.69 544.212C2560.02 543.467 2560.12 542.713 2560.23 541.959C2561.1 542.395 2561.98 542.831 2562.94 543.685C2562.5 544.136 2561.98 544.169 2560.69 544.212Z" fill="#584933" fill-rule="nonzero" opacity="1" stroke="none" vectornator:layerName="path"/>
<path d="M2640.9 289.88C2640.97 290.097 2640.77 290.546 2640.34 290.793C2640.11 290.591 2640.64 290.113 2640.9 289.88Z" fill="#e59e3b" fill-rule="nonzero" opacity="1" stroke="none" vectornator:layerName="path"/>
</g>
</g>
</svg>
