<?xml version="1.0" encoding="UTF-8" standalone="no"?>
<!DOCTYPE svg PUBLIC "-//W3C//DTD SVG 1.1//EN" "http://www.w3.org/Graphics/SVG/1.1/DTD/svg11.dtd">
<!-- Created with Vectornator (http://vectornator.io/) -->
<svg height="100%" stroke-miterlimit="10" style="fill-rule:nonzero;clip-rule:evenodd;stroke-linecap:round;stroke-linejoin:round;" version="1.1" viewBox="0 0 2100 758.572" width="100%" xml:space="preserve" xmlns="http://www.w3.org/2000/svg" xmlns:vectornator="http://vectornator.io" xmlns:xlink="http://www.w3.org/1999/xlink">
<defs/>
<clipPath id="ArtboardFrame">
<rect height="758.572" width="2100" x="0" y="0"/>
</clipPath>
<g clip-path="url(#ArtboardFrame)" id="Untitled" vectornator:layerName="Untitled">
<path d="M2101 55.4163C2101 265.935 2101 476.454 2100.57 687.426C2083.03 687.615 2065.75 688.225 2048.82 686.888C2019.88 684.605 1991.16 681.055 1962.32 678.124C1922.66 674.092 1882.96 670.226 1843.31 666.136C1777.67 659.365 1711.72 655.585 1645.29 656.097C1616.67 656.317 1588.04 656.564 1559.43 657.164C1540.86 657.553 1522.25 658.138 1503.79 659.457C1470.34 661.848 1436.94 664.626 1403.6 667.656C1356.48 671.938 1309.33 676.184 1262.37 681.201C1209.52 686.848 1156.85 693.304 1104.12 699.461C1017.36 709.592 930.563 719.6 843.862 729.965C750.244 741.157 656.107 749.545 561.304 754.229C525.187 756.013 488.95 756.761 452.75 757.653C427.806 758.267 402.825 758.716 377.872 758.529C338.462 758.234 299.02 757.9 259.67 756.535C225.906 755.363 192.129 753.399 158.579 750.578C105.955 746.152 53.5167 740.71 1 735.698C1 525.405 1 315.112 1.41152 104.366C29.5445 106.551 57.3889 108.707 84.9608 111.933C136.003 117.904 187.148 123.072 238.997 124.152C265.112 124.695 291.246 124.956 317.374 125.051C347.35 125.161 377.329 125 407.306 124.846C418.613 124.788 429.93 124.577 441.221 124.162C472.734 123.007 504.259 121.926 535.735 120.404C565.84 118.948 596.008 117.608 625.938 115.077C670.63 111.298 715.219 106.862 759.706 102.078C814.542 96.181 869.479 90.4965 923.92 83.1763C1004.42 72.3523 1084.96 61.8395 1166.18 53.7731C1224.74 47.9576 1283.13 41.3546 1341.74 35.8173C1377.5 32.4384 1413.48 29.9222 1449.48 27.9129C1489.03 25.7048 1528.7 24.3239 1568.34 22.9758C1589.28 22.264 1610.27 22.1958 1631.24 22.1802C1664.03 22.1559 1696.84 21.9937 1729.61 22.7022C1755.78 23.2682 1781.94 24.789 1808.04 26.3459C1843.23 28.4446 1878.4 30.7745 1913.51 33.389C1956.37 36.5798 1998.62 42.2751 2040.85 48.0558C2060.82 50.7889 2080.94 52.9798 2101 55.4163Z" fill="#6a7349" fill-rule="nonzero" opacity="1" stroke="none" vectornator:layerName="path"/>
<path d="M2101 44.0552C2080.94 42.6464 2060.82 41.1898 2040.85 39.3727C1998.62 35.5294 1956.37 31.7428 1913.51 29.6214C1878.4 27.8831 1843.23 26.3341 1808.04 24.9387C1781.94 23.9037 1755.78 22.8925 1729.61 22.5162C1696.84 22.0451 1664.03 22.153 1631.24 22.1692C1610.27 22.1795 1589.28 22.2248 1568.34 22.6981C1528.7 23.5944 1489.03 24.5125 1449.48 25.9806C1413.48 27.3165 1377.5 28.9894 1341.74 31.2358C1283.13 34.9173 1224.74 39.3074 1166.18 43.1739C1084.96 48.5369 1004.42 55.5263 923.92 62.7228C869.479 67.5896 814.542 71.369 759.706 75.2896C715.219 78.4702 670.63 81.4195 625.938 83.9322C596.008 85.6149 565.84 86.5055 535.735 87.4736C504.259 88.4859 472.734 89.2043 441.221 89.9726C429.93 90.248 418.613 90.3885 407.306 90.4272C377.329 90.5297 347.35 90.6367 317.374 90.5636C291.246 90.4999 265.112 90.3269 238.997 89.9655C187.148 89.2478 136.003 85.8117 84.9608 81.8417C57.3889 79.6971 29.5445 78.2639 1.41152 76.6056C1 51.4788 1 26.2562 1 1.03567C701 1.03775 1401 1.03775 2101 1.03775C2101 15.3186 2101 29.5814 2101 44.0552Z" fill="#fefefe" fill-rule="nonzero" opacity="0" stroke="none" vectornator:layerName="path"/>
<path d="M1 496.767C53.5167 499.888 105.955 503.506 158.579 506.449C192.129 508.324 225.906 509.63 259.67 510.409C299.02 511.317 338.462 511.539 377.872 511.735C402.825 511.859 427.806 511.561 452.75 511.152C488.95 510.559 525.187 510.062 561.304 508.876C656.107 505.762 750.244 500.185 843.862 492.744C930.563 485.853 1017.36 479.199 1104.12 472.463C1156.85 468.37 1209.52 464.077 1262.37 460.323C1309.33 456.988 1356.48 454.164 1403.6 451.317C1436.94 449.303 1470.34 447.456 1503.79 445.867C1522.25 444.989 1540.86 444.6 1559.43 444.342C1588.04 443.943 1616.67 443.779 1645.29 443.632C1711.72 443.292 1777.67 445.805 1843.31 450.307C1882.96 453.026 1922.66 455.596 1962.32 458.277C1991.16 460.226 2019.88 462.586 2048.82 464.104C2065.75 464.993 2083.03 464.587 2100.57 464.667C2101 485.289 2101 506.008 2101 526.724C1401 526.721 701 526.721 1 526.721C1 516.795 1 506.886 1 496.767Z" fill="#fefefe" fill-rule="nonzero" opacity="0" stroke="none" vectornator:layerName="path"/>
</g>
</svg>
