<?xml version="1.0" encoding="UTF-8" standalone="no"?>
<!DOCTYPE svg PUBLIC "-//W3C//DTD SVG 1.1//EN" "http://www.w3.org/Graphics/SVG/1.1/DTD/svg11.dtd">
<!-- Created with Vectornator (http://vectornator.io/) -->
<svg height="100%" stroke-miterlimit="10" style="fill-rule:nonzero;clip-rule:evenodd;stroke-linecap:round;stroke-linejoin:round;" version="1.1" viewBox="0 0 640 640" width="100%" xml:space="preserve" xmlns="http://www.w3.org/2000/svg" xmlns:vectornator="http://vectornator.io" xmlns:xlink="http://www.w3.org/1999/xlink">
<defs/>
<g id="Untitled" vectornator:layerName="Untitled">
<path d="M106.667 553.333C95.6271 553.319 86.6814 544.373 86.6667 533.333L86.6667 421.84C86.6859 416.54 88.7938 411.462 92.5333 407.707L392.293 108C420.623 79.6502 466.577 79.6502 494.907 108L532 145.093C560.35 173.423 560.35 219.377 532 247.707L232.32 547.467C228.571 551.233 223.474 553.345 218.16 553.333L106.667 553.333ZM126.667 430.107L126.667 513.333L209.867 513.333L420.8 302.4L337.6 219.2L126.667 430.107ZM449.093 274.133L503.787 219.44C516.477 206.712 516.477 186.115 503.787 173.387L466.64 136.213C453.918 123.508 433.309 123.508 420.587 136.213L365.867 190.933L449.093 274.133Z" fill="#f8f7f4" fill-rule="nonzero" opacity="1" stroke="none" vectornator:layerName="path"/>
</g>
</svg>
