<?xml version="1.0" encoding="UTF-8" standalone="no"?>
<!DOCTYPE svg PUBLIC "-//W3C//DTD SVG 1.1//EN" "http://www.w3.org/Graphics/SVG/1.1/DTD/svg11.dtd">
<!-- Created with Vectornator (http://vectornator.io/) -->
<svg height="100%" stroke-miterlimit="10" style="fill-rule:nonzero;clip-rule:evenodd;stroke-linecap:round;stroke-linejoin:round;" version="1.1" viewBox="0 0 640 640" width="100%" xml:space="preserve" xmlns="http://www.w3.org/2000/svg" xmlns:vectornator="http://vectornator.io" xmlns:xlink="http://www.w3.org/1999/xlink">
<defs/>
<g id="Untitled" vectornator:layerName="Untitled">
<path d="M246.667 513.333L246.667 500L146.667 500C113.548 499.956 86.7107 473.119 86.6667 440L86.6667 429.813C86.56 403.932 101.201 380.248 124.4 368.773C134.743 363.606 141.66 353.438 142.667 341.92L154.56 210.987C159.106 160.947 186.066 115.656 227.886 87.8041C269.706 59.9518 321.888 52.5332 369.813 67.6267C362.5 78.9974 356.801 91.3285 352.88 104.267C342.152 101.423 331.099 99.9889 320 100C254.689 99.6936 200.091 149.592 194.533 214.667L182.667 345.547C180.423 370.884 165.159 393.228 142.373 404.533C132.736 409.278 126.641 419.098 126.667 429.84L126.667 440.027C126.696 451.056 135.637 459.985 146.667 460L493.333 460C504.373 459.985 513.319 451.04 513.333 440L513.333 429.813C513.376 419.095 507.314 409.287 497.707 404.533C474.89 393.249 459.593 370.901 457.333 345.547L452 287.413C465.218 291.288 478.919 293.272 492.693 293.307L497.12 341.893C498.214 353.374 505.12 363.492 515.413 368.693C538.63 380.174 553.297 403.86 553.227 429.76L553.227 439.947C553.197 473.072 526.352 499.917 493.227 499.947L393.333 499.947L393.333 513.333C393.333 553.834 360.501 586.667 320 586.667C279.499 586.667 246.667 553.834 246.667 513.333ZM286.667 513.333C286.667 531.743 301.591 546.667 320 546.667C338.409 546.667 353.333 531.743 353.333 513.333L353.333 500L286.667 500L286.667 513.333ZM487.92 239.84C473.39 239.002 459.26 234.764 446.667 227.467L445.493 214.667C442.645 181.66 426.845 151.124 401.547 129.733C404.091 116.085 409.648 103.176 417.813 91.9467C456.401 120.062 481.005 163.439 485.333 210.987L488 239.813L488 239.813L487.92 239.84Z" fill="#f8f7f4" fill-rule="nonzero" opacity="1" stroke="none" vectornator:layerName="path"/>
<path d="M493.333 240C441.787 240 400 198.213 400 146.667C400 95.1201 441.787 53.3333 493.333 53.3333C544.88 53.3333 586.667 95.1201 586.667 146.667C586.667 198.213 544.88 240 493.333 240Z" fill="#f25922" fill-rule="nonzero" opacity="1" stroke="none" vectornator:layerName="path"/>
</g>
</svg>
